<?xml version="1.0" encoding="UTF-8" standalone="no"?>
<svg
   xmlns:dc="http://purl.org/dc/elements/1.1/"
   xmlns:cc="http://creativecommons.org/ns#"
   xmlns:rdf="http://www.w3.org/1999/02/22-rdf-syntax-ns#"
   xmlns:svg="http://www.w3.org/2000/svg"
   xmlns="http://www.w3.org/2000/svg"
   xmlns:sodipodi="http://sodipodi.sourceforge.net/DTD/sodipodi-0.dtd"
   xmlns:inkscape="http://www.inkscape.org/namespaces/inkscape"
   height="420mm"
   viewBox="0 0 594.00002 419.99999"
   width="594mm"
   version="1.1"
   id="svg41"
   sodipodi:docname="Box_140x140x100_rounded_with_20mm_v2.svg"
   inkscape:version="1.0.2-2 (e86c870879, 2021-01-15)">
  <defs
     id="defs45" />
  <sodipodi:namedview
     pagecolor="#ffffff"
     bordercolor="#666666"
     borderopacity="1"
     objecttolerance="10"
     gridtolerance="10"
     guidetolerance="10"
     inkscape:pageopacity="0"
     inkscape:pageshadow="2"
     inkscape:window-width="1920"
     inkscape:window-height="1001"
     id="namedview43"
     showgrid="false"
     inkscape:zoom="2.4808546"
     inkscape:cx="1578.3793"
     inkscape:cy="213.56238"
     inkscape:window-x="-9"
     inkscape:window-y="-9"
     inkscape:window-maximized="1"
     inkscape:current-layer="p-4"
     inkscape:document-rotation="0" />
  <!--
RoundedBox - Box with vertical edges rounded

Created with Boxes.py (https://festi.info/boxes.py)
Creation date: 2021-09-07 12:42:53
Command line (remove spaces between dashes): boxes RoundedBox - -FingerJoint_angle=90.0 - -FingerJoint_style=rectangular - -FingerJoint_surroundingspaces=2.0 - -FingerJoint_edge_width=1.0 - -FingerJoint_finger=2.0 - -FingerJoint_play=0.0 - -FingerJoint_space=2.0 - -FingerJoint_width=1.0 - -Flex_stretch=1.05 - -Flex_connection=1.0 - -Flex_distance=0.5 - -Flex_width=5.0 - -x=140 - -y=140 - -h=100.0 - -outside=0 - -outside=1 - -radius=20 - -wallpieces=1 - -edge_style=f - -top=lid - -thickness=4.0 - -format=svg - -tabs=0.0 - -debug=0 - -labels=0 - -labels=1 - -reference=100 - -burn=0.1
Url: http://www.festi.info/RoundedBox?FingerJoint_angle=90.0&FingerJoint_style=rectangular&FingerJoint_surroundingspaces=2.0&FingerJoint_edge_width=1.0&FingerJoint_finger=2.0&FingerJoint_play=0.0&FingerJoint_space=2.0&FingerJoint_width=1.0&Flex_stretch=1.05&Flex_connection=1.0&Flex_distance=0.5&Flex_width=5.0&x=140&y=140&h=100.0&outside=0&outside=1&radius=20&wallpieces=1&edge_style=f&top=lid&thickness=4.0&format=svg&tabs=0.0&debug=0&labels=0&labels=1&reference=100&burn=0.1&render=1
SettingsUrl: http://www.festi.info/RoundedBox?FingerJoint_angle=90.0&FingerJoint_style=rectangular&FingerJoint_surroundingspaces=2.0&FingerJoint_edge_width=1.0&FingerJoint_finger=2.0&FingerJoint_play=0.0&FingerJoint_space=2.0&FingerJoint_width=1.0&Flex_stretch=1.05&Flex_connection=1.0&Flex_distance=0.5&Flex_width=5.0&x=140&y=140&h=100.0&outside=0&outside=1&radius=20&wallpieces=1&edge_style=f&top=lid&thickness=4.0&format=svg&tabs=0.0&debug=0&labels=0&labels=1&reference=100&burn=0.1
-->
  <title
     id="title2">RoundedBox</title>
  <metadata
     id="metadata4">
    <rdf:RDF>
      <cc:Work>
        <dc:title>RoundedBox</dc:title>
        <dc:date>2021-09-07 12:42:53</dc:date>
        <dc:source>http://www.festi.info/RoundedBox?FingerJoint_angle=90.0&amp;FingerJoint_style=rectangular&amp;FingerJoint_surroundingspaces=2.0&amp;FingerJoint_edge_width=1.0&amp;FingerJoint_finger=2.0&amp;FingerJoint_play=0.0&amp;FingerJoint_space=2.0&amp;FingerJoint_width=1.0&amp;Flex_stretch=1.05&amp;Flex_connection=1.0&amp;Flex_distance=0.5&amp;Flex_width=5.0&amp;x=140&amp;y=140&amp;h=100.0&amp;outside=0&amp;outside=1&amp;radius=20&amp;wallpieces=1&amp;edge_style=f&amp;top=lid&amp;thickness=4.0&amp;format=svg&amp;tabs=0.0&amp;debug=0&amp;labels=0&amp;labels=1&amp;reference=100&amp;burn=0.1&amp;render=1</dc:source>
        <dc:description>Box with vertical edges rounded

Created with Boxes.py (https://festi.info/boxes.py)
Command line: boxes RoundedBox --FingerJoint_angle=90.0 --FingerJoint_style=rectangular --FingerJoint_surroundingspaces=2.0 --FingerJoint_edge_width=1.0 --FingerJoint_finger=2.0 --FingerJoint_play=0.0 --FingerJoint_space=2.0 --FingerJoint_width=1.0 --Flex_stretch=1.05 --Flex_connection=1.0 --Flex_distance=0.5 --Flex_width=5.0 --x=140 --y=140 --h=100.0 --outside=0 --outside=1 --radius=20 --wallpieces=1 --edge_style=f --top=lid --thickness=4.0 --format=svg --tabs=0.0 --debug=0 --labels=0 --labels=1 --reference=100 --burn=0.1
Url: http://www.festi.info/RoundedBox?FingerJoint_angle=90.0&amp;FingerJoint_style=rectangular&amp;FingerJoint_surroundingspaces=2.0&amp;FingerJoint_edge_width=1.0&amp;FingerJoint_finger=2.0&amp;FingerJoint_play=0.0&amp;FingerJoint_space=2.0&amp;FingerJoint_width=1.0&amp;Flex_stretch=1.05&amp;Flex_connection=1.0&amp;Flex_distance=0.5&amp;Flex_width=5.0&amp;x=140&amp;y=140&amp;h=100.0&amp;outside=0&amp;outside=1&amp;radius=20&amp;wallpieces=1&amp;edge_style=f&amp;top=lid&amp;thickness=4.0&amp;format=svg&amp;tabs=0.0&amp;debug=0&amp;labels=0&amp;labels=1&amp;reference=100&amp;burn=0.1&amp;render=1
SettingsUrl: http://www.festi.info/RoundedBox?FingerJoint_angle=90.0&amp;FingerJoint_style=rectangular&amp;FingerJoint_surroundingspaces=2.0&amp;FingerJoint_edge_width=1.0&amp;FingerJoint_finger=2.0&amp;FingerJoint_play=0.0&amp;FingerJoint_space=2.0&amp;FingerJoint_width=1.0&amp;Flex_stretch=1.05&amp;Flex_connection=1.0&amp;Flex_distance=0.5&amp;Flex_width=5.0&amp;x=140&amp;y=140&amp;h=100.0&amp;outside=0&amp;outside=1&amp;radius=20&amp;wallpieces=1&amp;edge_style=f&amp;top=lid&amp;thickness=4.0&amp;format=svg&amp;tabs=0.0&amp;debug=0&amp;labels=0&amp;labels=1&amp;reference=100&amp;burn=0.1
</dc:description>
        <dc:format>image/svg+xml</dc:format>
        <dc:type
           rdf:resource="http://purl.org/dc/dcmitype/StillImage" />
      </cc:Work>
    </rdf:RDF>
  </metadata>
  <g
     id="p-0"
     style="fill:none;stroke-linecap:round;stroke-linejoin:round"
     transform="rotate(-90,210.32269,-89.109688)">
    <path
       d="m 10.1,264.6 h 100 v -10 h -100 z"
       stroke="#000000"
       stroke-width="0.2"
       id="path6" />
    <text
       alignment-baseline="hanging"
       font-size="6.01173px"
       style="font-style:normal;font-weight:normal;font-family:sans-serif;fill:#000000;stroke-width:0.601173"
       text-anchor="middle"
       id="text8"
       x="54.05352"
       y="262.49945">100mm</text>
    <text
       alignment-baseline="hanging"
       font-size="4px"
       style="font-style:normal;font-weight:normal;font-family:sans-serif;fill:#ff0000"
       text-anchor="middle"
       transform="translate(15.1,257.6)"
       id="text10" />
  </g>
  <g
     id="p-1"
     style="fill:none;stroke-linecap:round;stroke-linejoin:round">
    <text
       alignment-baseline="hanging"
       font-size="4px"
       style="font-style:normal;font-weight:normal;font-family:sans-serif;fill:#ff0000"
       text-anchor="middle"
       transform="translate(80.1,180.4)"
       id="text13" />
    <path
       d="M 34.1,248.4 H 45 c 0.1,0 0,-0.1 0,0 v 3.9 c 0,0.055 0.045,0.1 0.1,0.1 h 8 c 0.055,0 0.1,-0.045 0.1,-0.1 v -3.9 c 0,-0.1 -0.1,0 0,0 H 61 c 0.1,0 0,-0.1 0,0 v 3.9 c 0,0.055 0.045,0.1 0.1,0.1 h 8 c 0.055,0 0.1,-0.045 0.1,-0.1 v -3.9 c 0,-0.1 -0.1,0 0,0 H 80.1 91 c 0.1,0 0,-0.1 0,0 v 3.9 c 0,0.055 0.045,0.1 0.1,0.1 h 8 c 0.055,0 0.1,-0.045 0.1,-0.1 v -3.9 c 0,-0.1 -0.1,0 0,0 h 7.8 c 0.1,0 0,-0.1 0,0 v 3.9 c 0,0.055 0.045,0.1 0.1,0.1 h 8 c 0.055,0 0.1,-0.045 0.1,-0.1 v -3.9 c 0,-0.1 -0.1,0 0,0 h 10.9 c 3.528,0 6.994,-0.929 10.05,-2.693 3.056,-1.764 5.593,-4.301 7.357,-7.357 1.764,-3.056 2.693,-6.522 2.693,-10.05 v -9.9 c 0,-0.1 -0.1,0 0,0 h 3.9 c 0.055,0 0.1,-0.045 0.1,-0.1 v -8 c 0,-0.055 -0.045,-0.1 -0.1,-0.1 h -3.9 c -0.1,0 0,0.1 0,0 v -7.8 c 0,-0.1 -0.1,0 0,0 h 3.9 c 0.055,0 0.1,-0.045 0.1,-0.1 v -8 c 0,-0.055 -0.045,-0.1 -0.1,-0.1 h -3.9 c -0.1,0 0,0.1 0,0 v -7.8 c 0,-0.1 -0.1,0 0,0 h 3.9 c 0.055,0 0.1,-0.045 0.1,-0.1 v -8 c 0,-0.055 -0.045,-0.1 -0.1,-0.1 h -3.9 c -0.1,0 0,0.1 0,0 v -7.8 c 0,-0.1 -0.1,0 0,0 h 3.9 c 0.055,0 0.1,-0.045 0.1,-0.1 v -8 c 0,-0.055 -0.045,-0.1 -0.1,-0.1 h -3.9 c -0.1,0 0,0.1 0,0 v -7.8 c 0,-0.1 -0.1,0 0,0 h 3.9 c 0.055,0 0.1,-0.045 0.1,-0.1 v -8 c 0,-0.055 -0.045,-0.1 -0.1,-0.1 h -3.9 c -0.1,0 0,0.1 0,0 v -9.9 c 0,-3.528 -0.929,-6.994 -2.693,-10.05 -1.764,-3.056 -4.301,-5.593 -7.357,-7.357 -3.056,-1.764 -6.522,-2.693 -10.05,-2.693 h -9.9 c -0.1,0 0,0.1 0,0 v -3.9 c 0,-0.055 -0.045,-0.1 -0.1,-0.1 h -8 c -0.055,0 -0.1,0.045 -0.1,0.1 v 3.9 c 0,0.1 0.1,0 0,0 h -7.8 c -0.1,0 0,0.1 0,0 v -3.9 c 0,-0.055 -0.045,-0.1 -0.1,-0.1 h -8 c -0.055,0 -0.1,0.045 -0.1,0.1 v 3.9 c 0,0.1 0.1,0 0,0 h -7.8 c -0.1,0 0,0.1 0,0 v -3.9 c 0,-0.055 -0.045,-0.1 -0.1,-0.1 h -8 c -0.055,0 -0.1,0.045 -0.1,0.1 v 3.9 c 0,0.1 0.1,0 0,0 h -7.8 c -0.1,0 0,0.1 0,0 v -3.9 c 0,-0.055 -0.045,-0.1 -0.1,-0.1 h -8 c -0.055,0 -0.1,0.045 -0.1,0.1 v 3.9 c 0,0.1 0.1,0 0,0 h -7.8 c -0.1,0 0,0.1 0,0 v -3.9 c 0,-0.055 -0.045,-0.1 -0.1,-0.1 h -8 c -0.055,0 -0.1,0.045 -0.1,0.1 v 3.9 c 0,0.1 0.1,0 0,0 h -9.9 c -3.528,0 -6.994,0.929 -10.05,2.693 -3.056,1.764 -5.593,4.301 -7.357,7.357 C 14.929,129.306 14,132.772 14,136.3 v 9.9 c 0,0.1 0.1,0 0,0 h -3.9 c -0.055,0 -0.1,0.045 -0.1,0.1 v 8 c 0,0.055 0.045,0.1 0.1,0.1 H 14 c 0.1,0 0,-0.1 0,0 v 7.8 c 0,0.1 0.1,0 0,0 h -3.9 c -0.055,0 -0.1,0.045 -0.1,0.1 v 8 c 0,0.055 0.045,0.1 0.1,0.1 H 14 c 0.1,0 0,-0.1 0,0 v 7.8 c 0,0.1 0.1,0 0,0 h -3.9 c -0.055,0 -0.1,0.045 -0.1,0.1 v 8 c 0,0.055 0.045,0.1 0.1,0.1 H 14 c 0.1,0 0,-0.1 0,0 v 7.8 c 0,0.1 0.1,0 0,0 h -3.9 c -0.055,0 -0.1,0.045 -0.1,0.1 v 8 c 0,0.055 0.045,0.1 0.1,0.1 H 14 c 0.1,0 0,-0.1 0,0 v 7.8 c 0,0.1 0.1,0 0,0 h -3.9 c -0.055,0 -0.1,0.045 -0.1,0.1 v 8 c 0,0.055 0.045,0.1 0.1,0.1 H 14 c 0.1,0 0,-0.1 0,0 v 9.9 c 0,3.528 0.929,6.994 2.693,10.05 1.764,3.056 4.301,5.593 7.357,7.357 3.056,1.764 6.522,2.693 10.05,2.693"
       stroke="#000000"
       stroke-width="0.2"
       id="path15" />
  </g>
  <g
     id="p-2"
     style="fill:none;stroke-linecap:round;stroke-linejoin:round"
     transform="translate(28.615482,142.07912)">
    <text
       alignment-baseline="hanging"
       font-size="4px"
       style="font-style:normal;font-weight:normal;font-family:sans-serif;fill:#ff0000"
       text-anchor="middle"
       transform="translate(222.3,180.4)"
       id="text18" />
    <path
       d="m 146.0525,-5.825755 0,92 c 0,2.124 0.559,4.211 1.621,6.05 1.062,1.839 2.59,3.367 4.429,4.429 1.839,1.062 3.926,1.621 6.05,1.621 l 72.23367,0 c 2.124,0 4.211,-0.559 6.05,-1.621 1.839,-1.062 3.3851,-2.620885 4.429,-4.429 1.04389,-1.808115 1.621,-3.926 1.621,-6.05 l 0,-92 c 0,-2.124 -0.559,-4.211 -1.621,-6.05 -1.062,-1.839 -2.59,-3.367 -4.429,-4.429 -1.839,-1.062 -3.926,-1.621 -6.05,-1.621 l -72.23367,0 c -2.124,0 -4.211,0.559 -6.05,1.621 -1.839,1.062 -3.367,2.59 -4.429,4.429 -1.062,1.839 -1.621,3.926 -1.621,6.05 z m 2.21683,112.271355 h 10.9 c 0.1,0 0,-0.1 0,0 v 3.9 c 0,0.055 0.045,0.1 0.1,0.1 h 8 c 0.055,0 0.1,-0.045 0.1,-0.1 v -3.9 c 0,-0.1 -0.1,0 0,0 h 7.8 c 0.1,0 0,-0.1 0,0 v 3.9 c 0,0.055 0.045,0.1 0.1,0.1 h 8 c 0.055,0 0.1,-0.045 0.1,-0.1 v -3.9 c 0,-0.1 -0.1,0 0,0 h 10.9 10.9 c 0.1,0 0,-0.1 0,0 v 3.9 c 0,0.055 0.045,0.1 0.1,0.1 h 8 c 0.055,0 0.1,-0.045 0.1,-0.1 v -3.9 c 0,-0.1 -0.1,0 0,0 h 7.8 c 0.1,0 0,-0.1 0,0 v 3.9 c 0,0.055 0.045,0.1 0.1,0.1 h 8 c 0.055,0 0.1,-0.045 0.1,-0.1 v -3.9 c 0,-0.1 -0.1,0 0,0 h 10.9 c 3.528,0 6.994,-0.929 10.05,-2.693 3.056,-1.764 5.593,-4.301 7.357,-7.357 1.764,-3.056 2.693,-6.522 2.693,-10.05 v -9.9 c 0,-0.1 -0.1,0 0,0 h 3.9 c 0.055,0 0.1,-0.045 0.1,-0.1 v -8 c 0,-0.055 -0.045,-0.1 -0.1,-0.1 h -3.9 c -0.1,0 0,0.1 0,0 v -7.8 c 0,-0.1 -0.1,0 0,0 h 3.9 c 0.055,0 0.1,-0.045 0.1,-0.1 v -8 c 0,-0.055 -0.045,-0.1 -0.1,-0.1 h -3.9 c -0.1,0 0,0.1 0,0 v -7.8 c 0,-0.1 -0.1,0 0,0 h 3.9 c 0.055,0 0.1,-0.045 0.1,-0.1 v -8 c 0,-0.055 -0.045,-0.1 -0.1,-0.1 h -3.9 c -0.1,0 0,0.1 0,0 v -7.8 c 0,-0.1 -0.1,0 0,0 h 3.9 c 0.055,0 0.1,-0.045 0.1,-0.1 v -8 c 0,-0.055 -0.045,-0.1 -0.1,-0.1 h -3.9 c -0.1,0 0,0.1 0,0 v -7.8 c 0,-0.1 -0.1,0 0,0 h 3.9 c 0.055,0 0.1,-0.045 0.1,-0.1 v -8 c 0,-0.055 -0.045,-0.1 -0.1,-0.1 h -3.9 c -0.1,0 0,0.1 0,0 v -9.9 c 0,-3.528 -0.929,-6.994 -2.693,-10.05 -1.764,-3.056 -4.301,-5.593 -7.357,-7.357 -3.056,-1.764 -6.522,-2.693 -10.05,-2.693 h -9.9 c -0.1,0 0,0.1 0,0 v -3.9 c 0,-0.055 -0.045,-0.1 -0.1,-0.1 h -8 c -0.055,0 -0.1,0.045 -0.1,0.1 v 3.9 c 0,0.1 0.1,0 0,0 h -7.8 c -0.1,0 0,0.1 0,0 v -3.9 c 0,-0.055 -0.045,-0.1 -0.1,-0.1 h -8 c -0.055,0 -0.1,0.045 -0.1,0.1 v 3.9 c 0,0.1 0.1,0 0,0 h -7.8 c -0.1,0 0,0.1 0,0 v -3.9 c 0,-0.055 -0.045,-0.1 -0.1,-0.1 h -8 c -0.055,0 -0.1,0.045 -0.1,0.1 v 3.9 c 0,0.1 0.1,0 0,0 h -7.8 c -0.1,0 0,0.1 0,0 v -3.9 c 0,-0.055 -0.045,-0.1 -0.1,-0.1 h -8 c -0.055,0 -0.1,0.045 -0.1,0.1 v 3.9 c 0,0.1 0.1,0 0,0 h -7.8 c -0.1,0 0,0.1 0,0 v -3.9 c 0,-0.055 -0.045,-0.1 -0.1,-0.1 h -8 c -0.055,0 -0.1,0.045 -0.1,0.1 v 3.9 c 0,0.1 0.1,0 0,0 h -9.9 c -3.528,0 -6.994,0.929 -10.05,2.693 -3.056,1.764 -5.593,4.301 -7.357,7.357 -1.764,3.056 -2.693,6.522 -2.693,10.05 v 9.9 c 0,0.1 0.1,0 0,0 h -3.9 c -0.055,0 -0.1,0.045 -0.1,0.1 v 8 c 0,0.055 0.045,0.1 0.1,0.1 h 3.9 c 0.1,0 0,-0.1 0,0 v 7.8 c 0,0.1 0.1,0 0,0 h -3.9 c -0.055,0 -0.1,0.045 -0.1,0.1 v 8 c 0,0.055 0.045,0.1 0.1,0.1 h 3.9 c 0.1,0 0,-0.1 0,0 v 7.8 c 0,0.1 0.1,0 0,0 h -3.9 c -0.055,0 -0.1,0.045 -0.1,0.1 v 8 c 0,0.055 0.045,0.1 0.1,0.1 h 3.9 c 0.1,0 0,-0.1 0,0 v 7.8 c 0,0.1 0.1,0 0,0 h -3.9 c -0.055,0 -0.1,0.045 -0.1,0.1 v 8 c 0,0.055 0.045,0.1 0.1,0.1 h 3.9 c 0.1,0 0,-0.1 0,0 v 7.8 c 0,0.1 0.1,0 0,0 h -3.9 c -0.055,0 -0.1,0.045 -0.1,0.1 v 8 c 0,0.055 0.045,0.1 0.1,0.1 h 3.9 c 0.1,0 0,-0.1 0,0 v 9.9 c 0,3.528 0.929,6.994 2.693,10.05 1.764,3.056 4.301,5.593 7.357,7.357 3.056,1.764 6.522,2.693 10.05,2.693"
       stroke="#000000"
       stroke-width="0.2"
       id="path20"
       sodipodi:nodetypes="ssssssssssssssssscsssssssssssssssscsssssssssssssssssssssssssssssssssssssssssssssssssssssssssssssssssssssssssssssssssssssssssssssssssssssssssssssssssssssssssssssssssssssssssssssssssssssssc" />
  </g>
  <g
     id="p-3"
     style="fill:none;stroke-linecap:round;stroke-linejoin:round"
     transform="translate(-0.150826,0.1131195)">
    <text
       alignment-baseline="hanging"
       font-size="4px"
       style="font-style:normal;font-weight:normal;font-family:sans-serif;fill:#ff0000"
       text-anchor="middle"
       transform="translate(364.5,180.4)"
       id="text23" />
    <path
       d="m 318.5,252.4 h 46 46 c 4.23,0 8.386,-1.114 12.05,-3.229 3.664,-2.115 6.706,-5.157 8.821,-8.821 2.115,-3.664 3.229,-7.82 3.229,-12.05 v -92 c 0,-4.23 -1.114,-8.386 -3.229,-12.05 -2.115,-3.664 -5.157,-6.706 -8.821,-8.821 -3.664,-2.115 -7.82,-3.229 -12.05,-3.229 h -92 c -4.23,0 -8.386,1.114 -12.05,3.229 -3.664,2.115 -6.706,5.157 -8.821,8.821 -2.115,3.664 -3.229,7.82 -3.229,12.05 v 92 c 0,4.23 1.114,8.386 3.229,12.05 2.115,3.664 5.157,6.706 8.821,8.821 3.664,2.115 7.82,3.229 12.05,3.229"
       stroke="#000000"
       stroke-width="0.2"
       id="path25" />
  </g>
  <g
     id="p-4"
     style="fill:none;stroke-linecap:round;stroke-linejoin:round">
    <text
       alignment-baseline="hanging"
       font-size="4px"
       style="font-style:normal;font-weight:normal;font-family:sans-serif;fill:#ff0000"
       text-anchor="middle"
       transform="translate(258.339,58.2)"
       id="text28" />
    <path
       d="m 10.1,110.2 h 11 c 0.055,0 0.1,-0.045 0.1,-0.1 v -3.9 c 0,-0.1 -0.1,0 0,0 H 29 c 0.1,0 0,-0.1 0,0 v 3.9 c 0,0.055 0.045,0.1 0.1,0.1 h 8 c 0.055,0 0.1,-0.045 0.1,-0.1 v -3.9 c 0,-0.1 -0.1,0 0,0 h 8.101652 c 0.1,0 0,-0.1 0,0 v 3.9 c 0,0.055 0.045,0.1 0.1,0.1 H 56.1 86.17 96.019174 c 0.055,0 0.1,-0.045 0.1,-0.1 v -3.9 c 0,-0.1 -0.1,0 0,0 H 104.07 c 0.1,0 0,-0.1 0,0 v 3.9 c 0,0.055 0.044,0.1 0.1,0.1 h 8 c 0.055,0 0.1,-0.045 0.1,-0.1 v -3.9 c 0,-0.1 -0.1,0 0,0 h 7.8 c 0.1,0 0,-0.1 0,0 v 3.9 c 0,0.055 0.044,0.1 0.1,0.1 h 8 c 0.055,0 0.1,-0.045 0.1,-0.1 v -3.9 c 0,-0.1 -0.1,0 0,0 h 7.8 c 0.1,0 0,-0.1 0,0 v 3.9 c 0,0.055 0.044,0.1 0.1,0.1 h 8 c 0.055,0 0.1,-0.045 0.1,-0.1 v -3.9 c 0,-0.1 -0.1,0 0,0 h 7.8 c 0.1,0 0,-0.1 0,0 v 3.9 c 0,0.055 0.044,0.1 0.1,0.1 h 8 c 0.055,0 0.1,-0.045 0.1,-0.1 v -3.9 c 0,-0.1 -0.1,0 0,0 h 8.0133 c 0.1,0 0,-0.1 0,0 v 3.9 c 0,0.055 0.044,0.1 0.1,0.1 h 9.7867 30.069 9.69835 c 0.055,0 0.1,-0.045 0.1,-0.1 v -3.9 c 0,-0.1 -0.1,0 0,0 h 8.10165 c 0.1,0 0,-0.1 0,0 v 3.9 c 0,0.055 0.045,0.1 0.1,0.1 h 8 c 0.055,0 0.1,-0.045 0.1,-0.1 v -3.9 c 0,-0.1 -0.1,0 0,0 h 7.8 c 0.1,0 0,-0.1 0,0 v 3.9 c 0,0.055 0.045,0.1 0.1,0.1 h 8 c 0.055,0 0.1,-0.045 0.1,-0.1 v -3.9 c 0,-0.1 -0.1,0 0,0 h 7.8 c 0.1,0 0,-0.1 0,0 v 3.9 c 0,0.055 0.045,0.1 0.1,0.1 h 8 c 0.055,0 0.1,-0.045 0.1,-0.1 v -3.9 c 0,-0.1 -0.1,0 0,0 h 7.8 c 0.1,0 0,-0.1 0,0 v 3.9 c 0,0.055 0.045,0.1 0.1,0.1 h 8 c 0.055,0 0.1,-0.045 0.1,-0.1 v -3.9 c 0,-0.1 -0.1,0 0,0 h 8.10165 c 0.1,0 0,-0.1 0,0 v 3.9 c 0,0.055 0.045,0.1 0.1,0.1 h 9.69835 30.07 9.7867 c 0.055,0 0.1,-0.045 0.1,-0.1 v -3.9 c 0,-0.1 -0.1,0 0,0 h 8.0133 c 0.1,0 0,-0.1 0,0 v 3.9 c 0,0.055 0.044,0.1 0.1,0.1 h 8 c 0.055,0 0.1,-0.045 0.1,-0.1 v -3.9 c 0,-0.1 -0.1,0 0,0 h 7.8 c 0.1,0 0,-0.1 0,0 v 3.9 c 0,0.055 0.044,0.1 0.1,0.1 h 8 c 0.055,0 0.1,-0.045 0.1,-0.1 v -3.9 c 0,-0.1 -0.1,0 0,0 h 7.8 c 0.1,0 0,-0.1 0,0 v 3.9 c 0,0.055 0.044,0.1 0.1,0.1 h 8 c 0.055,0 0.1,-0.045 0.1,-0.1 v -3.9 c 0,-0.1 -0.1,0 0,0 h 7.8 c 0.1,0 0,-0.1 0,0 v 3.9 c 0,0.055 0.044,0.1 0.1,0.1 h 8 c 0.055,0 0.1,-0.045 0.1,-0.1 v -3.9 c 0,-0.1 -0.1,0 0,0 h 8.0133 c 0.1,0 0,-0.1 0,0 v 3.9 c 0,0.055 0.044,0.1 0.1,0.1 h 9.7867 30.069 10.5734 c 0.055,0 0.1,-0.045 0.1,-0.1 v -3.9 c 0,-0.1 -0.1,0 0,0 h 8.2266 c 0.1,0 0,-0.1 0,0 v 3.9 c 0,0.055 0.045,0.1 0.1,0.1 h 8 c 0.055,0 0.1,-0.045 0.1,-0.1 v -3.9 c 0,-0.1 -0.1,0 0,0 h 7.8 c 0.1,0 0,-0.1 0,0 v 3.9 c 0,0.055 0.045,0.1 0.1,0.1 h 11 c 0.055,0 0.1,-0.045 0.1,-0.1 v -4 -17.505738 c 0,-0.144 0.044,-0.284 0.127,-0.402 0.082,-0.117 0.199,-0.207 0.334,-0.256 0.135,-0.049 0.282,-0.056 0.42,-0.018 0.139,0.037 0.263,0.116 0.355,0.226 l 3.175,3.783 c 0.118,0.141 0.278,0.243 0.456,0.291 0.179,0.047 0.367,0.039 0.541,-0.024 0.173,-0.063 0.323,-0.178 0.429,-0.33 0.106,-0.151 0.163,-0.331 0.163,-0.516 V 76.851738 c 0,-0.185 -0.057,-0.365 -0.163,-0.516 -0.106,-0.152 -0.256,-0.267 -0.429,-0.33 -0.174,-0.063 -0.362,-0.071 -0.541,-0.024 -0.178,0.048 -0.338,0.15 -0.456,0.291 l -3.175,3.783 c -0.092,0.11 -0.216,0.189 -0.355,0.226 -0.138,0.038 -0.285,0.031 -0.42,-0.018 -0.135,-0.049 -0.252,-0.139 -0.334,-0.256 -0.083,-0.118 -0.127,-0.258 -0.127,-0.402 V 64.540937 c 0,-0.144 0.044,-0.284 0.127,-0.402 0.082,-0.117 0.199,-0.207 0.334,-0.256 0.135,-0.049 0.282,-0.056 0.42,-0.018 0.139,0.037 0.263,0.116 0.355,0.226 l 3.175,3.783 c 0.118,0.141 0.278,0.243 0.456,0.291 0.179,0.047 0.367,0.039 0.541,-0.024 0.173,-0.063 0.323,-0.178 0.429,-0.33 0.106,-0.151 0.163,-0.331 0.163,-0.516 V 52.905063 c 0,-0.185 -0.057,-0.365 -0.163,-0.516 -0.106,-0.152 -0.256,-0.267 -0.429,-0.33 -0.174,-0.063 -0.362,-0.071 -0.541,-0.024 -0.178,0.048 -0.338,0.15 -0.456,0.291 l -3.175,3.783 c -0.092,0.11 -0.216,0.189 -0.355,0.226 -0.138,0.038 -0.285,0.031 -0.42,-0.018 -0.135,-0.049 -0.252,-0.139 -0.334,-0.256 -0.083,-0.118 -0.127,-0.258 -0.127,-0.402 V 40.540937 c 0,-0.144 0.044,-0.284 0.127,-0.402 0.082,-0.117 0.199,-0.207 0.334,-0.256 0.135,-0.049 0.282,-0.056 0.42,-0.018 0.139,0.037 0.263,0.116 0.355,0.226 l 3.175,3.783 c 0.118,0.141 0.278,0.243 0.456,0.291 0.179,0.047 0.367,0.039 0.541,-0.024 0.173,-0.063 0.323,-0.178 0.429,-0.33 0.106,-0.151 0.163,-0.331 0.163,-0.516 V 28.905063 c 0,-0.185 -0.057,-0.365 -0.163,-0.516 -0.106,-0.152 -0.256,-0.267 -0.429,-0.33 -0.174,-0.063 -0.362,-0.071 -0.541,-0.024 -0.178,0.048 -0.338,0.15 -0.456,0.291 l -3.175,3.783 c -0.092,0.11 -0.216,0.189 -0.355,0.226 -0.138,0.038 -0.285,0.031 -0.42,-0.018 -0.135,-0.049 -0.252,-0.139 -0.334,-0.256 -0.083,-0.118 -0.127,-0.258 -0.127,-0.402 V 14.1 v -4 c 0,-0.055 -0.045,-0.1 -0.1,-0.1 h -11 c -0.055,0 -0.1,0.045 -0.1,0.1 V 14 c 0,0.1 0.1,0 0,0 h -7.8 c -0.1,0 0,0.1 0,0 v -3.9 c 0,-0.055 -0.045,-0.1 -0.1,-0.1 h -8 c -0.055,0 -0.1,0.045 -0.1,0.1 V 14 c 0,0.1 0.1,0 0,0 h -8.2266 c -0.1,0 0,0.1 0,0 v -3.9 c 0,-0.055 -0.045,-0.1 -0.1,-0.1 h -10.5734 -30.069 -9.7867 c -0.056,0 -0.1,0.045 -0.1,0.1 V 14 c 0,0.1 0.1,0 0,0 h -8.0133 c -0.1,0 0,0.1 0,0 v -3.9 c 0,-0.055 -0.045,-0.1 -0.1,-0.1 h -8 c -0.056,0 -0.1,0.045 -0.1,0.1 V 14 c 0,0.1 0.1,0 0,0 h -7.8 c -0.1,0 0,0.1 0,0 v -3.9 c 0,-0.055 -0.045,-0.1 -0.1,-0.1 h -8 c -0.056,0 -0.1,0.045 -0.1,0.1 V 14 c 0,0.1 0.1,0 0,0 h -7.8 c -0.1,0 0,0.1 0,0 v -3.9 c 0,-0.055 -0.045,-0.1 -0.1,-0.1 h -8 c -0.056,0 -0.1,0.045 -0.1,0.1 V 14 c 0,0.1 0.1,0 0,0 h -7.8 c -0.1,0 0,0.1 0,0 v -3.9 c 0,-0.055 -0.045,-0.1 -0.1,-0.1 h -8 c -0.056,0 -0.1,0.045 -0.1,0.1 V 14 c 0,0.1 0.1,0 0,0 h -8.0133 c -0.1,0 0,0.1 0,0 v -3.9 c 0,-0.055 -0.045,-0.1 -0.1,-0.1 h -9.7867 -30.07 -9.69835 c -0.055,0 -0.1,0.045 -0.1,0.1 V 14 c 0,0.1 0.1,0 0,0 H 282.339 c -0.1,0 0,0.1 0,0 v -3.9 c 0,-0.055 -0.045,-0.1 -0.1,-0.1 h -8 c -0.055,0 -0.1,0.045 -0.1,0.1 V 14 c 0,0.1 0.1,0 0,0 h -7.8 c -0.1,0 0,0.1 0,0 v -3.9 c 0,-0.055 -0.045,-0.1 -0.1,-0.1 h -8 c -0.055,0 -0.1,0.045 -0.1,0.1 V 14 c 0,0.1 0.1,0 0,0 h -7.8 c -0.1,0 0,0.1 0,0 v -3.9 c 0,-0.055 -0.045,-0.1 -0.1,-0.1 h -8 c -0.055,0 -0.1,0.045 -0.1,0.1 V 14 c 0,0.1 0.1,0 0,0 h -7.8 c -0.1,0 0,0.1 0,0 v -3.9 c 0,-0.055 -0.045,-0.1 -0.1,-0.1 h -8 c -0.055,0 -0.1,0.045 -0.1,0.1 V 14 c 0,0.1 0.1,0 0,0 h -8.10165 c -0.1,0 0,0.1 0,0 v -3.9 c 0,-0.055 -0.045,-0.1 -0.1,-0.1 H 208.239 178.17 168.3833 c -0.056,0 -0.1,0.045 -0.1,0.1 V 14 c 0,0.1 0.1,0 0,0 H 160.27 c -0.1,0 0,0.1 0,0 v -3.9 c 0,-0.055 -0.045,-0.1 -0.1,-0.1 h -8 c -0.056,0 -0.1,0.045 -0.1,0.1 V 14 c 0,0.1 0.1,0 0,0 h -7.8 c -0.1,0 0,0.1 0,0 v -3.9 c 0,-0.055 -0.045,-0.1 -0.1,-0.1 h -8 c -0.056,0 -0.1,0.045 -0.1,0.1 V 14 c 0,0.1 0.1,0 0,0 h -7.8 c -0.1,0 0,0.1 0,0 v -3.9 c 0,-0.055 -0.045,-0.1 -0.1,-0.1 h -8 c -0.056,0 -0.1,0.045 -0.1,0.1 V 14 c 0,0.1 0.1,0 0,0 h -7.8 c -0.1,0 0,0.1 0,0 v -3.9 c 0,-0.055 -0.045,-0.1 -0.1,-0.1 h -8 c -0.056,0 -0.1,0.045 -0.1,0.1 V 14 c 0,0.1 0.1,0 0,0 h -7.950826 c -0.1,0 0,0.1 0,0 v -3.9 c 0,-0.055 -0.045,-0.1 -0.1,-0.1 H 86.17 56.1 45.401652 c -0.055,0 -0.1,0.045 -0.1,0.1 V 14 c 0,0.1 0.1,0 0,0 H 37.2 c -0.1,0 0,0.1 0,0 V 10.1 C 37.2,10.045 37.155,10 37.1,10 h -8 C 29.045,10 29,10.045 29,10.1 V 14 c 0,0.1 0.1,0 0,0 h -7.8 c -0.1,0 0,0.1 0,0 V 10.1 C 21.2,10.045 21.155,10 21.1,10 h -11 C 10.045,10 10,10.045 10,10.1 v 4 17.377 c 0,0.185 0.057,0.365 0.163,0.516 0.106,0.152 0.256,0.267 0.429,0.33 0.174,0.063 0.363,-0.03565 0.541,-0.08265 0.178,-0.048 0.338,-0.15 0.456,-0.291 l 3.3883,-3.783 c 0.092,-0.11 0.216,-0.189 0.355,-0.226 0.139,-0.038 0.285,-0.031 0.42,0.018 0.135,0.049 0.252,0.139 0.334,0.256 0.083,0.118 0.127,0.258 0.127,0.402 v 14.9673 c 0,0.144 -0.044,0.284 -0.127,0.402 -0.082,0.117 -0.199,0.207 -0.334,0.256 -0.135,0.049 -0.281,0.056 -0.42,0.018 -0.139,-0.037 -0.263,-0.116 -0.355,-0.226 L 11.589,40.144 c -0.118,-0.141 -0.278,-0.243 -0.456,-0.291 -0.178,-0.047 -0.367,-0.039 -0.541,0.024 -0.173,0.063 -0.323,0.178 -0.429,0.33 C 10.057,40.358 10,40.538 10,40.723 v 14.754 c 0,0.185 0.057,0.365 0.163,0.516 0.106,0.152 0.256,0.267 0.429,0.33 0.174,0.063 0.363,0.071 0.541,0.024 0.178,-0.048 0.338,-0.15 0.456,-0.291 l 3.3883,-3.88965 c 0.092,-0.11 0.216,-0.189 0.355,-0.226 0.139,-0.038 0.285,-0.031 0.42,0.018 0.135,0.049 0.252,0.139 0.334,0.256 0.083,0.118 0.127,0.258 0.127,0.402 v 14.9673 c 0,0.144 -0.044,0.284 -0.127,0.402 -0.082,0.117 -0.199,0.207 -0.334,0.256 -0.135,0.049 -0.281,0.056 -0.42,0.018 -0.139,-0.037 -0.263,-0.116 -0.355,-0.226 L 11.589,64.144 c -0.118,-0.141 -0.278,-0.243 -0.456,-0.291 -0.178,-0.047 -0.367,-0.039 -0.541,0.024 -0.173,0.063 -0.323,0.178 -0.429,0.33 C 10.057,64.358 10,64.538 10,64.723 v 14.754 c 0,0.185 0.057,0.365 0.163,0.516 0.106,0.152 0.256,0.267 0.429,0.33 0.174,0.063 0.363,0.071 0.541,0.024 0.178,-0.048 0.338,-0.15 0.456,-0.291 l 3.3883,-3.88965 c 0.092,-0.11 0.216,-0.189 0.355,-0.226 0.139,-0.038 0.285,-0.031 0.42,0.018 0.135,0.049 0.252,0.139 0.334,0.256 0.083,0.118 0.127,0.258 0.127,0.402 v 14.9673 c 0,0.144 -0.044,0.284 -0.127,0.402 -0.082,0.117 -0.199,0.207 -0.334,0.256 -0.135,0.049 -0.281,0.056 -0.42,0.018 -0.139,-0.037 -0.263,-0.116 -0.355,-0.226 L 11.589,88.144 c -0.118,-0.141 -0.278,-0.243 -0.456,-0.291 -0.178,-0.047 -0.367,-0.039 -0.541,0.024 -0.173,0.063 -0.323,0.178 -0.429,0.33 C 10.057,88.358 10,88.538 10,88.723 v 17.377 4 c 0,0.055 0.045,0.1 0.1,0.1"
       stroke="#000000"
       stroke-width="0.2"
       id="path30"
       sodipodi:nodetypes="cssssssssssssssssccssssssssssssssssssssssssssssssssssssssssccssssssssssssssssssssssssssssssssssssssssccssssssssssssssssssssssssssssssssssssssssccsssssssssssssssssscscsccccccssccccccscsscsccccccssccccccscsscsccccccssccccccscscssssssssssssssssssccssssssssssssssssssssssssssssssssssssssssccssssssssssssssssssssssssssssssssssssssssccssssssssssssssssssssssssssssssssssssssssccsssssssssssssssssscsccccccscsscsccccccssccccccscsscsccccccssccccccscsscsccccccscsc" />
    <path
       d="M 58.135,110.2 V 89.325 m 0,-10.35 v -37.75 m 0,-10.35 V 10 m 2,5.5875 v 40.925 m 0,7.175 v 40.925 m 2,5.5875 V 86.679167 m 0,-5.058334 V 38.579167 m 0,-5.058334 V 10 m 2,4 v 44.1 m 0,4 v 44.1 m 2,4 V 86.15 m 0,-4 v -44.1 m 0,-4 V 10 m 2,4 v 44.1 m 0,4 v 44.1 m 2,4 V 86.15 m 0,-4 v -44.1 m 0,-4 V 10 m 2,4 v 44.1 m 0,4 v 44.1 m 2,4 V 86.15 m 0,-4 v -44.1 m 0,-4 V 10 m 2,4 v 44.1 m 0,4 v 44.1 m 2,4 V 86.15 m 0,-4 v -44.1 m 0,-4 V 10 m 2,4.529167 v 43.041666 m 0,5.058334 v 43.041663 m 2,4.52917 V 87.7375 m 0,-7.175 v -40.925 m 0,-7.175 V 10 m 2,7.175 v 37.75 m 0,10.35 v 37.75"
       stroke="#000000"
       stroke-width="0.2"
       id="path32"
       sodipodi:nodetypes="cccccccccccccccccccccccccccccccccccccccccccccccccccccccccccccccccccccc" />
    <path
       d="M 180.204,110.2 V 89.325 m 0,-10.35 v -37.75 m 0,-10.35 V 10 m 2,5.5875 v 40.925 m 0,7.175 v 40.925 m 2,5.5875 V 86.679167 m 0,-5.058334 V 38.579167 m 0,-5.058334 V 10 m 2,4 v 44.1 m 0,4 v 44.1 m 2,4 V 86.15 m 0,-4 v -44.1 m 0,-4 V 10 m 2,4 v 44.1 m 0,4 v 44.1 m 2,4 V 86.15 m 0,-4 v -44.1 m 0,-4 V 10 m 2,4 v 44.1 m 0,4 v 44.1 m 2,4 V 86.15 m 0,-4 v -44.1 m 0,-4 V 10 m 2,4 v 44.1 m 0,4 v 44.1 m 2,4 V 86.15 m 0,-4 v -44.1 m 0,-4 V 10 m 2,4.529167 v 43.041666 m 0,5.058334 v 43.041663 m 2,4.52917 V 87.7375 m 0,-7.175 v -40.925 m 0,-7.175 V 10 m 2,7.175 v 37.75 m 0,10.35 v 37.75"
       stroke="#000000"
       stroke-width="0.2"
       id="path34"
       sodipodi:nodetypes="cccccccccccccccccccccccccccccccccccccccccccccccccccccccccccccccccccccc" />
    <path
       d="M 302.274,110.2 V 89.325 m 0,-10.35 v -37.75 m 0,-10.35 V 10 m 2,5.5875 v 40.925 m 0,7.175 v 40.925 m 2,5.5875 V 86.15 m 0,-4 V 38.579167 m 0,-5.058334 V 10 m 2,4 v 44.1 m 0,4 v 44.1 m 2,4 V 86.15 m 0,-4 v -44.1 m 0,-4 V 10 m 2,4 v 44.1 m 0,4 v 44.1 m 2,4 V 86.15 m 0,-4 v -44.1 m 0,-4 V 10 m 2,4 v 44.1 m 0,4 v 44.1 m 2,4 V 86.15 m 0,-4 v -44.1 m 0,-4 V 10 m 2,4 v 44.1 m 0,4 v 44.1 m 2,4 V 86.15 m 0,-4 v -44.1 m 0,-4 V 10 m 2,4.529167 v 43.041666 m 0,5.058334 v 43.041663 m 2,4.52917 V 87.7375 m 0,-7.175 v -40.925 m 0,-7.175 V 10 m 2,7.175 v 37.75 m 0,10.35 v 37.75"
       stroke="#000000"
       stroke-width="0.2"
       id="path36"
       sodipodi:nodetypes="cccccccccccccccccccccccccccccccccccccccccccccccccccccccccccccccccccccc" />
    <path
       d="M 424.343,110.2 V 89.325 m 0,-10.35 v -37.75 m 0,-10.35 V 10 m 2,5.5875 v 40.925 m 0,7.175 v 40.925 m 2,5.5875 V 86.679167 m 0,-5.058334 V 38.579167 m 0,-5.058334 V 10 m 2,4 v 44.1 m 0,4 v 44.1 m 2,4 V 86.15 m 0,-4 v -44.1 m 0,-4 V 10 m 2,4 v 44.1 m 0,4 v 44.1 m 2,4 V 86.15 m 0,-4 v -44.1 m 0,-4 V 10 m 2,4 v 44.1 m 0,4 v 44.1 m 2,4 V 86.15 m 0,-4 v -44.1 m 0,-4 V 10 m 2,4 v 44.1 m 0,4 v 44.1 m 2,4 V 86.15 m 0,-4 v -44.1 m 0,-4 V 10 m 2,4.529167 v 43.041666 m 0,5.058334 v 43.041663 m 2,4.52917 V 87.7375 m 0,-7.175 v -40.925 m 0,-7.175 V 10 m 2,7.175 v 37.75 m 0,10.35 v 37.75"
       stroke="#000000"
       stroke-width="0.2"
       id="path38"
       sodipodi:nodetypes="cccccccccccccccccccccccccccccccccccccccccccccccccccccccccccccccccccccc" />
  </g>
  <path
     id="rect874"
     style="fill:none;stroke:#000000;stroke-width:0.132292;stroke-linejoin:round;stroke-opacity:1;paint-order:fill markers stroke"
     d="m 340.53285,163.75836 v -20.88184 c 0,-6.67337 5.37242,-12.0458 12.0458,-12.0458 h 20.88184 c 6.67337,0 12.0458,5.37243 12.0458,12.0458 v 20.88184 c 0,6.67337 -5.37243,12.04579 -12.0458,12.04579 h -20.88184 c -6.67338,0 -12.0458,-5.37242 -12.0458,-12.04579 z" />
  <path
     id="rect876"
     style="fill:none;stroke:#000000;stroke-width:0.132743;stroke-linejoin:round;stroke-opacity:1;paint-order:fill markers stroke"
     d="m 326.71098,229.62171 v -6.93805 c 0,-2.19639 1.41476,-3.9646 3.17211,-3.9646 h 68.42155 c 1.75735,0 3.17211,1.76821 3.17211,3.9646 v 6.93805 c 0,2.19639 -1.41476,3.9646 -3.17211,3.9646 h -68.42155 c -1.75735,0 -3.17211,-1.76821 -3.17211,-3.9646 z" />
  <path
     id="path880"
     style="fill:none;stroke:#000000;stroke-width:0.132292;stroke-linecap:round;stroke-linejoin:round;stroke-opacity:1;paint-order:fill markers stroke"
     d="m 405.5831,223.93389 a 1.9858836,1.9858922 0 0 1 1.98589,1.9859 1.9858836,1.9858922 0 0 1 -1.98589,1.98588 1.9858836,1.9858922 0 0 1 -1.98589,-1.98588 1.9858836,1.9858922 0 0 1 1.98589,-1.9859 z" />
  <path
     id="path880-2"
     style="fill:none;stroke:#000000;stroke-width:0.132292;stroke-linecap:round;stroke-linejoin:round;stroke-opacity:1;paint-order:fill markers stroke"
     d="m 322.58855,223.95789 a 1.9858836,1.9858922 0 0 1 1.98589,1.9859 1.9858836,1.9858922 0 0 1 -1.98589,1.98588 1.9858836,1.9858922 0 0 1 -1.98589,-1.98588 1.9858836,1.9858922 0 0 1 1.98589,-1.9859 z" />
  <path
     id="path880-2-6"
     style="fill:none;stroke:#000000;stroke-width:0.132292;stroke-linecap:round;stroke-linejoin:round;stroke-opacity:1;paint-order:fill markers stroke"
     d="m 293.38171,85.137448 a 1.9858922,1.9858836 0 0 1 -1.9859,1.98589 1.9858922,1.9858836 0 0 1 -1.98588,-1.98589 1.9858922,1.9858836 0 0 1 1.98588,-1.98589 1.9858922,1.9858836 0 0 1 1.9859,1.98589 z" />
  <path
     id="path880-2-6-6"
     style="fill:none;stroke:#000000;stroke-width:0.132292;stroke-linecap:round;stroke-linejoin:round;stroke-opacity:1;paint-order:fill markers stroke"
     d="m 219.29801,85.137448 a 1.9858922,1.9858836 0 0 1 -1.9859,1.98589 1.9858922,1.9858836 0 0 1 -1.98588,-1.98589 1.9858922,1.9858836 0 0 1 1.98588,-1.98589 1.9858922,1.9858836 0 0 1 1.9859,1.98589 z" />
  <path
     id="path880-2-6-6-1"
     style="fill:none;stroke:#000000;stroke-width:0.132292;stroke-linecap:round;stroke-linejoin:round;stroke-opacity:1;paint-order:fill markers stroke"
     d="m 239.45885,72.055227 a 1.9858922,1.9858836 0 0 1 -1.9859,1.98589 1.9858922,1.9858836 0 0 1 -1.98588,-1.98589 1.9858922,1.9858836 0 0 1 1.98588,-1.98589 1.9858922,1.9858836 0 0 1 1.9859,1.98589 z" />
  <path
     id="path880-2-6-6-1-5"
     style="fill:none;stroke:#000000;stroke-width:0.132292;stroke-linecap:round;stroke-linejoin:round;stroke-opacity:1;paint-order:fill markers stroke"
     d="m 274.67673,72.055227 a 1.9858922,1.9858836 0 0 1 -1.9859,1.98589 1.9858922,1.9858836 0 0 1 -1.98588,-1.98589 1.9858922,1.9858836 0 0 1 1.98588,-1.98589 1.9858922,1.9858836 0 0 1 1.9859,1.98589 z" />
  <path
     id="path880-2-6-6-1-5-6"
     style="fill:none;stroke:#000000;stroke-width:0.132292;stroke-linecap:round;stroke-linejoin:round;stroke-opacity:1;paint-order:fill markers stroke"
     d="m 257.0678,72.055227 a 1.9858922,1.9858836 0 0 1 -1.9859,1.98589 1.9858922,1.9858836 0 0 1 -1.98588,-1.98589 1.9858922,1.9858836 0 0 1 1.98588,-1.98589 1.9858922,1.9858836 0 0 1 1.9859,1.98589 z" />
  <path
     id="path880-2-6-6-1-7"
     style="fill:none;stroke:#000000;stroke-width:0.132292;stroke-linecap:round;stroke-linejoin:round;stroke-opacity:1;paint-order:fill markers stroke"
     d="m 239.57197,98.649309 a 1.9858922,1.9858836 0 0 1 -1.9859,1.985881 1.9858922,1.9858836 0 0 1 -1.98588,-1.985881 1.9858922,1.9858836 0 0 1 1.98588,-1.985888 1.9858922,1.9858836 0 0 1 1.9859,1.985888 z" />
  <path
     id="path880-2-6-6-1-5-1"
     style="fill:none;stroke:#000000;stroke-width:0.132292;stroke-linecap:round;stroke-linejoin:round;stroke-opacity:1;paint-order:fill markers stroke"
     d="m 274.78985,98.649309 a 1.9858922,1.9858836 0 0 1 -1.9859,1.985881 1.9858922,1.9858836 0 0 1 -1.98588,-1.985881 1.9858922,1.9858836 0 0 1 1.98588,-1.985888 1.9858922,1.9858836 0 0 1 1.9859,1.985888 z" />
  <path
     id="path880-2-6-6-1-5-6-7"
     style="fill:none;stroke:#000000;stroke-width:0.132292;stroke-linecap:round;stroke-linejoin:round;stroke-opacity:1;paint-order:fill markers stroke"
     d="m 257.18092,98.649309 a 1.9858922,1.9858836 0 0 1 -1.9859,1.985881 1.9858922,1.9858836 0 0 1 -1.98588,-1.985881 1.9858922,1.9858836 0 0 1 1.98588,-1.985888 1.9858922,1.9858836 0 0 1 1.9859,1.985888 z" />
  <path
     id="path880-2-6-6-1-7-9"
     style="fill:none;stroke:#000000;stroke-width:0.132292;stroke-linecap:round;stroke-linejoin:round;stroke-opacity:1;paint-order:fill markers stroke"
     d="m 336.52617,159.65372 a 1.9858836,1.9858922 0 0 1 1.98589,1.9859 1.9858836,1.9858922 0 0 1 -1.98589,1.98588 1.9858836,1.9858922 0 0 1 -1.98589,-1.98588 1.9858836,1.9858922 0 0 1 1.98589,-1.9859 z" />
  <path
     id="path880-2-6-6-1-5-6-7-4"
     style="fill:none;stroke:#000000;stroke-width:0.132292;stroke-linecap:round;stroke-linejoin:round;stroke-opacity:1;paint-order:fill markers stroke"
     d="m 336.52617,143.10311 a 1.9858836,1.9858922 0 0 1 1.98589,1.9859 1.9858836,1.9858922 0 0 1 -1.98589,1.98588 1.9858836,1.9858922 0 0 1 -1.98589,-1.98588 1.9858836,1.9858922 0 0 1 1.98589,-1.9859 z" />
  <path
     id="path880-2-6-6-1-7-9-2"
     style="fill:none;stroke:#000000;stroke-width:0.132292;stroke-linecap:round;stroke-linejoin:round;stroke-opacity:1;paint-order:fill markers stroke"
     d="m 389.00981,159.72216 a 1.9858836,1.9858922 0 0 1 1.98589,1.9859 1.9858836,1.9858922 0 0 1 -1.98589,1.98588 1.9858836,1.9858922 0 0 1 -1.98589,-1.98588 1.9858836,1.9858922 0 0 1 1.98589,-1.9859 z" />
  <path
     id="path880-2-6-6-1-5-6-7-4-6"
     style="fill:none;stroke:#000000;stroke-width:0.132292;stroke-linecap:round;stroke-linejoin:round;stroke-opacity:1;paint-order:fill markers stroke"
     d="m 389.00981,143.17155 a 1.9858836,1.9858922 0 0 1 1.98589,1.9859 1.9858836,1.9858922 0 0 1 -1.98589,1.98588 1.9858836,1.9858922 0 0 1 -1.98589,-1.98588 1.9858836,1.9858922 0 0 1 1.98589,-1.9859 z" />
  <path
     id="path880-2-6-6-1-7-9-8"
     style="fill:none;stroke:#000000;stroke-width:0.132292;stroke-linecap:round;stroke-linejoin:round;stroke-opacity:1;paint-order:fill markers stroke"
     d="m 357.90513,127.29757 a 1.9858922,1.9858836 0 0 1 -1.9859,1.98588 1.9858922,1.9858836 0 0 1 -1.98588,-1.98588 1.9858922,1.9858836 0 0 1 1.98588,-1.9859 1.9858922,1.9858836 0 0 1 1.9859,1.9859 z" />
  <path
     id="path880-2-6-6-1-5-6-7-4-3"
     style="fill:none;stroke:#000000;stroke-width:0.132292;stroke-linecap:round;stroke-linejoin:round;stroke-opacity:1;paint-order:fill markers stroke"
     d="m 374.45574,127.29757 a 1.9858922,1.9858836 0 0 1 -1.9859,1.98588 1.9858922,1.9858836 0 0 1 -1.98588,-1.98588 1.9858922,1.9858836 0 0 1 1.98588,-1.9859 1.9858922,1.9858836 0 0 1 1.9859,1.9859 z" />
  <path
     id="path880-2-6-6-1-7-9-2-8"
     style="fill:none;stroke:#000000;stroke-width:0.132292;stroke-linecap:round;stroke-linejoin:round;stroke-opacity:1;paint-order:fill markers stroke"
     d="m 357.8367,179.7812 a 1.9858922,1.9858836 0 0 1 -1.9859,1.98589 1.9858922,1.9858836 0 0 1 -1.98589,-1.98589 1.9858922,1.9858836 0 0 1 1.98589,-1.98589 1.9858922,1.9858836 0 0 1 1.9859,1.98589 z" />
  <path
     id="path880-2-6-6-1-5-6-7-4-6-4"
     style="fill:none;stroke:#000000;stroke-width:0.132292;stroke-linecap:round;stroke-linejoin:round;stroke-opacity:1;paint-order:fill markers stroke"
     d="m 374.3873,179.7812 a 1.9858922,1.9858836 0 0 1 -1.9859,1.98589 1.9858922,1.9858836 0 0 1 -1.98588,-1.98589 1.9858922,1.9858836 0 0 1 1.98588,-1.98589 1.9858922,1.9858836 0 0 1 1.9859,1.98589 z" />
  <path
     id="path880-2-6-6-1-9"
     style="fill:none;stroke:#000000;stroke-width:0.132292;stroke-linecap:round;stroke-linejoin:round;stroke-opacity:1;paint-order:fill markers stroke"
     d="m 345.98176,214.9576 a 1.9858922,1.9858836 0 0 1 -1.9859,1.98589 1.9858922,1.9858836 0 0 1 -1.98588,-1.98589 1.9858922,1.9858836 0 0 1 1.98588,-1.98589 1.9858922,1.9858836 0 0 1 1.9859,1.98589 z" />
  <path
     id="path880-2-6-6-1-5-3"
     style="fill:none;stroke:#000000;stroke-width:0.132292;stroke-linecap:round;stroke-linejoin:round;stroke-opacity:1;paint-order:fill markers stroke"
     d="m 385.433,214.9576 a 1.9858922,1.9858836 0 0 1 -1.9859,1.98589 1.9858922,1.9858836 0 0 1 -1.98588,-1.98589 1.9858922,1.9858836 0 0 1 1.98588,-1.98589 1.9858922,1.9858836 0 0 1 1.9859,1.98589 z" />
  <path
     id="path880-2-6-6-1-5-6-5"
     style="fill:none;stroke:#000000;stroke-width:0.132292;stroke-linecap:round;stroke-linejoin:round;stroke-opacity:1;paint-order:fill markers stroke"
     d="m 365.70739,214.9576 a 1.9858922,1.9858836 0 0 1 -1.9859,1.98589 1.9858922,1.9858836 0 0 1 -1.98588,-1.98589 1.9858922,1.9858836 0 0 1 1.98588,-1.98589 1.9858922,1.9858836 0 0 1 1.9859,1.98589 z" />
  <path
     id="path880-2-6-6-1-7-9-1"
     style="fill:none;stroke:#000000;stroke-width:0.132292;stroke-linecap:round;stroke-linejoin:round;stroke-opacity:1;paint-order:fill markers stroke"
     d="m 307.66436,213.05999 a 1.9858836,1.9858922 0 0 1 1.98589,1.9859 1.9858836,1.9858922 0 0 1 -1.98589,1.98588 1.9858836,1.9858922 0 0 1 -1.98589,-1.98588 1.9858836,1.9858922 0 0 1 1.98589,-1.9859 z" />
  <path
     id="path880-2-6-6-1-5-6-7-4-0"
     style="fill:none;stroke:#000000;stroke-width:0.132292;stroke-linecap:round;stroke-linejoin:round;stroke-opacity:1;paint-order:fill markers stroke"
     d="m 307.66436,171.10922 a 1.9858836,1.9858922 0 0 1 1.98589,1.9859 1.9858836,1.9858922 0 0 1 -1.98589,1.98588 1.9858836,1.9858922 0 0 1 -1.98589,-1.98588 1.9858836,1.9858922 0 0 1 1.98589,-1.9859 z" />
  <path
     id="path880-2-6-6-1-9-0"
     style="fill:none;stroke:#000000;stroke-width:0.132292;stroke-linecap:round;stroke-linejoin:round;stroke-opacity:1;paint-order:fill markers stroke"
     d="m 345.98176,237.4858 a 1.9858922,1.9858836 0 0 1 -1.9859,1.98589 1.9858922,1.9858836 0 0 1 -1.98588,-1.98589 1.9858922,1.9858836 0 0 1 1.98588,-1.98589 1.9858922,1.9858836 0 0 1 1.9859,1.98589 z" />
  <path
     id="path880-2-6-6-1-5-3-5"
     style="fill:none;stroke:#000000;stroke-width:0.132292;stroke-linecap:round;stroke-linejoin:round;stroke-opacity:1;paint-order:fill markers stroke"
     d="m 385.433,237.4858 a 1.9858922,1.9858836 0 0 1 -1.9859,1.98589 1.9858922,1.9858836 0 0 1 -1.98588,-1.98589 1.9858922,1.9858836 0 0 1 1.98588,-1.98589 1.9858922,1.9858836 0 0 1 1.9859,1.98589 z" />
  <path
     id="path880-2-6-6-1-5-6-5-2"
     style="fill:none;stroke:#000000;stroke-width:0.132292;stroke-linecap:round;stroke-linejoin:round;stroke-opacity:1;paint-order:fill markers stroke"
     d="m 365.70739,237.4858 a 1.9858922,1.9858836 0 0 1 -1.9859,1.98589 1.9858922,1.9858836 0 0 1 -1.98588,-1.98589 1.9858922,1.9858836 0 0 1 1.98588,-1.98589 1.9858922,1.9858836 0 0 1 1.9859,1.98589 z" />
  <path
     id="rect878"
     style="fill:none;stroke:#000000;stroke-width:0.13229167;stroke-linecap:round;stroke-linejoin:round;stroke-opacity:1;paint-order:fill markers stroke"
     d="m 225.42701,76.065836 h 57.10146 c 2.18057,0 3.93605,1.412635 3.93605,3.167342 v 11.638884 c 0,1.754706 -1.75548,3.167342 -3.93605,3.167342 h -57.10146 c -2.18058,0 -3.93605,-1.412636 -3.93605,-3.167342 V 79.233178 c 0,-1.754707 1.75547,-3.167342 3.93605,-3.167342 z" />
  <path
     id="path880-2-6-6-1-7-9-1-2"
     style="fill:none;stroke:#000000;stroke-width:0.132292;stroke-linecap:round;stroke-linejoin:round;stroke-opacity:1;paint-order:fill markers stroke"
     d="m 307.66436,200.88908 a 1.9858836,1.9858922 0 0 1 1.98589,1.9859 1.9858836,1.9858922 0 0 1 -1.98589,1.98588 1.9858836,1.9858922 0 0 1 -1.98589,-1.98588 1.9858836,1.9858922 0 0 1 1.98589,-1.9859 z" />
  <path
     id="path880-2-6-6-1-7-9-1-2-8"
     style="fill:none;stroke:#000000;stroke-width:0.132292;stroke-linecap:round;stroke-linejoin:round;stroke-opacity:1;paint-order:fill markers stroke"
     d="m 307.66436,183.42647 a 1.9858836,1.9858922 0 0 1 1.98589,1.9859 1.9858836,1.9858922 0 0 1 -1.98589,1.98588 1.9858836,1.9858922 0 0 1 -1.98589,-1.98588 1.9858836,1.9858922 0 0 1 1.98589,-1.9859 z" />
  <path
     id="path880-2-6-6-1-7-9-1-1"
     style="fill:none;stroke:#000000;stroke-width:0.132292;stroke-linecap:round;stroke-linejoin:round;stroke-opacity:1;paint-order:fill markers stroke"
     d="m 421.38716,213.06 a 1.9858836,1.9858922 0 0 1 1.98589,1.9859 1.9858836,1.9858922 0 0 1 -1.98589,1.98588 1.9858836,1.9858922 0 0 1 -1.98589,-1.98588 1.9858836,1.9858922 0 0 1 1.98589,-1.9859 z" />
  <path
     id="path880-2-6-6-1-5-6-7-4-0-9"
     style="fill:none;stroke:#000000;stroke-width:0.132292;stroke-linecap:round;stroke-linejoin:round;stroke-opacity:1;paint-order:fill markers stroke"
     d="m 421.38716,171.10922 a 1.9858836,1.9858922 0 0 1 1.98589,1.98591 1.9858836,1.9858922 0 0 1 -1.98589,1.98588 1.9858836,1.9858922 0 0 1 -1.98589,-1.98588 1.9858836,1.9858922 0 0 1 1.98589,-1.98591 z" />
  <path
     id="path880-2-6-6-1-7-9-1-2-0"
     style="fill:none;stroke:#000000;stroke-width:0.132292;stroke-linecap:round;stroke-linejoin:round;stroke-opacity:1;paint-order:fill markers stroke"
     d="m 421.38716,200.88909 a 1.9858836,1.9858922 0 0 1 1.98589,1.9859 1.9858836,1.9858922 0 0 1 -1.98589,1.98588 1.9858836,1.9858922 0 0 1 -1.98589,-1.98588 1.9858836,1.9858922 0 0 1 1.98589,-1.9859 z" />
  <path
     id="path880-2-6-6-1-7-9-1-2-8-5"
     style="fill:none;stroke:#000000;stroke-width:0.132292;stroke-linecap:round;stroke-linejoin:round;stroke-opacity:1;paint-order:fill markers stroke"
     d="m 421.38716,183.42647 a 1.9858836,1.9858922 0 0 1 1.98589,1.98591 1.9858836,1.9858922 0 0 1 -1.98589,1.98588 1.9858836,1.9858922 0 0 1 -1.98589,-1.98588 1.9858836,1.9858922 0 0 1 1.98589,-1.98591 z" />
  <path
     id="path880-2-6-6-1-7-9-1-16"
     style="fill:none;stroke:#000000;stroke-width:0.132292;stroke-linecap:round;stroke-linejoin:round;stroke-opacity:1;paint-order:fill markers stroke"
     d="m 165.8892,212.80373 a 1.9858836,1.9858922 0 0 1 1.98589,1.9859 1.9858836,1.9858922 0 0 1 -1.98589,1.98588 1.9858836,1.9858922 0 0 1 -1.98589,-1.98588 1.9858836,1.9858922 0 0 1 1.98589,-1.9859 z" />
  <path
     id="path880-2-6-6-1-5-6-7-4-0-5"
     style="fill:none;stroke:#000000;stroke-width:0.132292;stroke-linecap:round;stroke-linejoin:round;stroke-opacity:1;paint-order:fill markers stroke"
     d="m 165.8892,170.85296 a 1.9858836,1.9858922 0 0 1 1.98589,1.9859 1.9858836,1.9858922 0 0 1 -1.98589,1.98588 1.9858836,1.9858922 0 0 1 -1.98589,-1.98588 1.9858836,1.9858922 0 0 1 1.98589,-1.9859 z" />
  <path
     id="path880-2-6-6-1-7-9-1-2-3"
     style="fill:none;stroke:#000000;stroke-width:0.132292;stroke-linecap:round;stroke-linejoin:round;stroke-opacity:1;paint-order:fill markers stroke"
     d="m 165.8892,200.63282 a 1.9858836,1.9858922 0 0 1 1.98589,1.9859 1.9858836,1.9858922 0 0 1 -1.98589,1.98588 1.9858836,1.9858922 0 0 1 -1.98589,-1.98588 1.9858836,1.9858922 0 0 1 1.98589,-1.9859 z" />
  <path
     id="path880-2-6-6-1-7-9-1-2-8-3"
     style="fill:none;stroke:#000000;stroke-width:0.132292;stroke-linecap:round;stroke-linejoin:round;stroke-opacity:1;paint-order:fill markers stroke"
     d="m 165.8892,183.17021 a 1.9858836,1.9858922 0 0 1 1.98589,1.9859 1.9858836,1.9858922 0 0 1 -1.98589,1.98588 1.9858836,1.9858922 0 0 1 -1.98589,-1.98588 1.9858836,1.9858922 0 0 1 1.98589,-1.9859 z" />
  <path
     id="path880-2-6-6-1-7-9-1-1-1"
     style="fill:none;stroke:#000000;stroke-width:0.132292;stroke-linecap:round;stroke-linejoin:round;stroke-opacity:1;paint-order:fill markers stroke"
     d="m 279.612,212.80374 a 1.9858836,1.9858922 0 0 1 1.98589,1.9859 1.9858836,1.9858922 0 0 1 -1.98589,1.98588 1.9858836,1.9858922 0 0 1 -1.98589,-1.98588 1.9858836,1.9858922 0 0 1 1.98589,-1.9859 z" />
  <path
     id="path880-2-6-6-1-5-6-7-4-0-9-7"
     style="fill:none;stroke:#000000;stroke-width:0.132292;stroke-linecap:round;stroke-linejoin:round;stroke-opacity:1;paint-order:fill markers stroke"
     d="m 279.612,170.85296 a 1.9858836,1.9858922 0 0 1 1.98589,1.98591 1.9858836,1.9858922 0 0 1 -1.98589,1.98588 1.9858836,1.9858922 0 0 1 -1.98589,-1.98588 1.9858836,1.9858922 0 0 1 1.98589,-1.98591 z" />
  <path
     id="path880-2-6-6-1-7-9-1-2-0-0"
     style="fill:none;stroke:#000000;stroke-width:0.132292;stroke-linecap:round;stroke-linejoin:round;stroke-opacity:1;paint-order:fill markers stroke"
     d="m 279.612,200.63283 a 1.9858836,1.9858922 0 0 1 1.98589,1.9859 1.9858836,1.9858922 0 0 1 -1.98589,1.98588 1.9858836,1.9858922 0 0 1 -1.98589,-1.98588 1.9858836,1.9858922 0 0 1 1.98589,-1.9859 z" />
  <path
     id="path880-2-6-6-1-7-9-1-2-8-5-8"
     style="fill:none;stroke:#000000;stroke-width:0.132292;stroke-linecap:round;stroke-linejoin:round;stroke-opacity:1;paint-order:fill markers stroke"
     d="m 279.612,183.17021 a 1.9858836,1.9858922 0 0 1 1.98589,1.98591 1.9858836,1.9858922 0 0 1 -1.98589,1.98588 1.9858836,1.9858922 0 0 1 -1.98589,-1.98588 1.9858836,1.9858922 0 0 1 1.98589,-1.98591 z" />
  <path
     id="path880-2-6-6-1-5-6-7-4-0-1"
     style="fill:none;stroke:#000000;stroke-width:0.132292;stroke-linecap:round;stroke-linejoin:round;stroke-opacity:1;paint-order:fill markers stroke"
     d="m 307.66436,122.95475 a 1.9858836,1.9858922 0 0 1 1.98589,1.9859 1.9858836,1.9858922 0 0 1 -1.98589,1.98588 1.9858836,1.9858922 0 0 1 -1.98589,-1.98588 1.9858836,1.9858922 0 0 1 1.98589,-1.9859 z" />
  <path
     id="path880-2-6-6-1-5-6-7-4-0-1-2"
     style="fill:none;stroke:#000000;stroke-width:0.132292;stroke-linecap:round;stroke-linejoin:round;stroke-opacity:1;paint-order:fill markers stroke"
     d="m 421.41583,122.9552 a 1.9858836,1.9858922 0 0 1 1.98589,1.9859 1.9858836,1.9858922 0 0 1 -1.98589,1.98588 1.9858836,1.9858922 0 0 1 -1.98589,-1.98588 1.9858836,1.9858922 0 0 1 1.98589,-1.9859 z" />
  <path
     id="path880-2-6-6-1-5-6-7-4-0-1-9"
     style="fill:none;stroke:#000000;stroke-width:0.132292;stroke-linecap:round;stroke-linejoin:round;stroke-opacity:1;paint-order:fill markers stroke"
     d="m 307.66436,238.78911 a 1.9858836,1.9858922 0 0 1 1.98589,1.9859 1.9858836,1.9858922 0 0 1 -1.98589,1.98588 1.9858836,1.9858922 0 0 1 -1.98589,-1.98588 1.9858836,1.9858922 0 0 1 1.98589,-1.9859 z" />
  <path
     id="path880-2-6-6-1-5-6-7-4-0-1-2-3"
     style="fill:none;stroke:#000000;stroke-width:0.132292;stroke-linecap:round;stroke-linejoin:round;stroke-opacity:1;paint-order:fill markers stroke"
     d="m 421.41583,238.78956 a 1.9858836,1.9858922 0 0 1 1.98589,1.9859 1.9858836,1.9858922 0 0 1 -1.98589,1.98588 1.9858836,1.9858922 0 0 1 -1.98589,-1.98588 1.9858836,1.9858922 0 0 1 1.98589,-1.9859 z" />
  <path
     id="path880-2-6-6-1-5-6-7-4-0-1-94"
     style="fill:none;stroke:#000000;stroke-width:0.132292;stroke-linecap:round;stroke-linejoin:round;stroke-opacity:1;paint-order:fill markers stroke"
     d="m 165.8892,122.95475 a 1.9858836,1.9858922 0 0 1 1.98589,1.9859 1.9858836,1.9858922 0 0 1 -1.98589,1.98588 1.9858836,1.9858922 0 0 1 -1.98589,-1.98588 1.9858836,1.9858922 0 0 1 1.98589,-1.9859 z" />
  <path
     id="path880-2-6-6-1-5-6-7-4-0-1-2-0"
     style="fill:none;stroke:#000000;stroke-width:0.132292;stroke-linecap:round;stroke-linejoin:round;stroke-opacity:1;paint-order:fill markers stroke"
     d="m 279.64067,122.9552 a 1.9858836,1.9858922 0 0 1 1.98589,1.9859 1.9858836,1.9858922 0 0 1 -1.98589,1.98588 1.9858836,1.9858922 0 0 1 -1.98589,-1.98588 1.9858836,1.9858922 0 0 1 1.98589,-1.9859 z" />
  <path
     id="path880-2-6-6-1-5-6-7-4-0-1-9-9"
     style="fill:none;stroke:#000000;stroke-width:0.132292;stroke-linecap:round;stroke-linejoin:round;stroke-opacity:1;paint-order:fill markers stroke"
     d="m 165.8892,238.78911 a 1.9858836,1.9858922 0 0 1 1.98589,1.9859 1.9858836,1.9858922 0 0 1 -1.98589,1.98588 1.9858836,1.9858922 0 0 1 -1.98589,-1.98588 1.9858836,1.9858922 0 0 1 1.98589,-1.9859 z" />
  <path
     id="path880-2-6-6-1-5-6-7-4-0-1-2-3-0"
     style="fill:none;stroke:#000000;stroke-width:0.132292;stroke-linecap:round;stroke-linejoin:round;stroke-opacity:1;paint-order:fill markers stroke"
     d="m 279.64067,238.78956 a 1.9858836,1.9858922 0 0 1 1.98589,1.9859 1.9858836,1.9858922 0 0 1 -1.98589,1.98588 1.9858836,1.9858922 0 0 1 -1.98589,-1.98588 1.9858836,1.9858922 0 0 1 1.98589,-1.9859 z" />
  <path
     id="path880-2-6-6-1-5-6-7-4-0-1-94-9"
     style="fill:none;stroke:#000000;stroke-width:0.132292;stroke-linecap:round;stroke-linejoin:round;stroke-opacity:1;paint-order:fill markers stroke"
     d="m 134.62101,131.27401 a 1.9858922,1.9858836 0 0 1 -1.9859,1.98589 1.9858922,1.9858836 0 0 1 -1.98588,-1.98589 1.9858922,1.9858836 0 0 1 1.98588,-1.98589 1.9858922,1.9858836 0 0 1 1.9859,1.98589 z" />
  <path
     id="path880-2-6-6-1-5-6-7-4-0-1-2-0-1"
     style="fill:none;stroke:#000000;stroke-width:0.132292;stroke-linecap:round;stroke-linejoin:round;stroke-opacity:1;paint-order:fill markers stroke"
     d="m 134.62056,234.44208 a 1.9858922,1.9858836 0 0 1 -1.9859,1.98589 1.9858922,1.9858836 0 0 1 -1.98588,-1.98589 1.9858922,1.9858836 0 0 1 1.98588,-1.98589 1.9858922,1.9858836 0 0 1 1.9859,1.98589 z" />
  <path
     id="path880-2-6-6-1-5-6-7-4-0-1-9-9-9"
     style="fill:none;stroke:#000000;stroke-width:0.132292;stroke-linecap:round;stroke-linejoin:round;stroke-opacity:1;paint-order:fill markers stroke"
     d="m 29.370014,131.27401 a 1.9858922,1.9858836 0 0 1 -1.9859,1.98589 1.9858922,1.9858836 0 0 1 -1.98588,-1.98589 1.9858922,1.9858836 0 0 1 1.98588,-1.98589 1.9858922,1.9858836 0 0 1 1.9859,1.98589 z" />
  <path
     id="path880-2-6-6-1-5-6-7-4-0-1-2-3-0-4"
     style="fill:none;stroke:#000000;stroke-width:0.132292;stroke-linecap:round;stroke-linejoin:round;stroke-opacity:1;paint-order:fill markers stroke"
     d="m 29.369564,234.44208 a 1.9858922,1.9858836 0 0 1 -1.9859,1.98589 1.9858922,1.9858836 0 0 1 -1.98588,-1.98589 1.9858922,1.9858836 0 0 1 1.98588,-1.98589 1.9858922,1.9858836 0 0 1 1.9859,1.98589 z" />
  <g
     id="p-1-5"
     style="fill:none;stroke-linecap:round;stroke-linejoin:round"
     transform="translate(427.88013)">
    <text
       alignment-baseline="hanging"
       font-size="4px"
       style="font-style:normal;font-weight:normal;font-family:sans-serif;fill:#ff0000"
       text-anchor="middle"
       transform="translate(80.1,180.4)"
       id="text13-1" />
    <path
       d="M 34.1,248.4 H 45 c 0.1,0 0,-0.1 0,0 v 3.9 c 0,0.055 0.045,0.1 0.1,0.1 h 8 c 0.055,0 0.1,-0.045 0.1,-0.1 v -3.9 c 0,-0.1 -0.1,0 0,0 H 61 c 0.1,0 0,-0.1 0,0 v 3.9 c 0,0.055 0.045,0.1 0.1,0.1 h 8 c 0.055,0 0.1,-0.045 0.1,-0.1 v -3.9 c 0,-0.1 -0.1,0 0,0 H 80.1 91 c 0.1,0 0,-0.1 0,0 v 3.9 c 0,0.055 0.045,0.1 0.1,0.1 h 8 c 0.055,0 0.1,-0.045 0.1,-0.1 v -3.9 c 0,-0.1 -0.1,0 0,0 h 7.8 c 0.1,0 0,-0.1 0,0 v 3.9 c 0,0.055 0.045,0.1 0.1,0.1 h 8 c 0.055,0 0.1,-0.045 0.1,-0.1 v -3.9 c 0,-0.1 -0.1,0 0,0 h 10.9 c 3.528,0 6.994,-0.929 10.05,-2.693 3.056,-1.764 5.593,-4.301 7.357,-7.357 1.764,-3.056 2.693,-6.522 2.693,-10.05 v -9.9 c 0,-0.1 -0.1,0 0,0 h 3.9 c 0.055,0 0.1,-0.045 0.1,-0.1 v -8 c 0,-0.055 -0.045,-0.1 -0.1,-0.1 h -3.9 c -0.1,0 0,0.1 0,0 v -7.8 c 0,-0.1 -0.1,0 0,0 h 3.9 c 0.055,0 0.1,-0.045 0.1,-0.1 v -8 c 0,-0.055 -0.045,-0.1 -0.1,-0.1 h -3.9 c -0.1,0 0,0.1 0,0 v -7.8 c 0,-0.1 -0.1,0 0,0 h 3.9 c 0.055,0 0.1,-0.045 0.1,-0.1 v -8 c 0,-0.055 -0.045,-0.1 -0.1,-0.1 h -3.9 c -0.1,0 0,0.1 0,0 v -7.8 c 0,-0.1 -0.1,0 0,0 h 3.9 c 0.055,0 0.1,-0.045 0.1,-0.1 v -8 c 0,-0.055 -0.045,-0.1 -0.1,-0.1 h -3.9 c -0.1,0 0,0.1 0,0 v -7.8 c 0,-0.1 -0.1,0 0,0 h 3.9 c 0.055,0 0.1,-0.045 0.1,-0.1 v -8 c 0,-0.055 -0.045,-0.1 -0.1,-0.1 h -3.9 c -0.1,0 0,0.1 0,0 v -9.9 c 0,-3.528 -0.929,-6.994 -2.693,-10.05 -1.764,-3.056 -4.301,-5.593 -7.357,-7.357 -3.056,-1.764 -6.522,-2.693 -10.05,-2.693 h -9.9 c -0.1,0 0,0.1 0,0 v -3.9 c 0,-0.055 -0.045,-0.1 -0.1,-0.1 h -8 c -0.055,0 -0.1,0.045 -0.1,0.1 v 3.9 c 0,0.1 0.1,0 0,0 h -7.8 c -0.1,0 0,0.1 0,0 v -3.9 c 0,-0.055 -0.045,-0.1 -0.1,-0.1 h -8 c -0.055,0 -0.1,0.045 -0.1,0.1 v 3.9 c 0,0.1 0.1,0 0,0 h -7.8 c -0.1,0 0,0.1 0,0 v -3.9 c 0,-0.055 -0.045,-0.1 -0.1,-0.1 h -8 c -0.055,0 -0.1,0.045 -0.1,0.1 v 3.9 c 0,0.1 0.1,0 0,0 h -7.8 c -0.1,0 0,0.1 0,0 v -3.9 c 0,-0.055 -0.045,-0.1 -0.1,-0.1 h -8 c -0.055,0 -0.1,0.045 -0.1,0.1 v 3.9 c 0,0.1 0.1,0 0,0 h -7.8 c -0.1,0 0,0.1 0,0 v -3.9 c 0,-0.055 -0.045,-0.1 -0.1,-0.1 h -8 c -0.055,0 -0.1,0.045 -0.1,0.1 v 3.9 c 0,0.1 0.1,0 0,0 h -9.9 c -3.528,0 -6.994,0.929 -10.05,2.693 -3.056,1.764 -5.593,4.301 -7.357,7.357 C 14.929,129.306 14,132.772 14,136.3 v 9.9 c 0,0.1 0.1,0 0,0 h -3.9 c -0.055,0 -0.1,0.045 -0.1,0.1 v 8 c 0,0.055 0.045,0.1 0.1,0.1 H 14 c 0.1,0 0,-0.1 0,0 v 7.8 c 0,0.1 0.1,0 0,0 h -3.9 c -0.055,0 -0.1,0.045 -0.1,0.1 v 8 c 0,0.055 0.045,0.1 0.1,0.1 H 14 c 0.1,0 0,-0.1 0,0 v 7.8 c 0,0.1 0.1,0 0,0 h -3.9 c -0.055,0 -0.1,0.045 -0.1,0.1 v 8 c 0,0.055 0.045,0.1 0.1,0.1 H 14 c 0.1,0 0,-0.1 0,0 v 7.8 c 0,0.1 0.1,0 0,0 h -3.9 c -0.055,0 -0.1,0.045 -0.1,0.1 v 8 c 0,0.055 0.045,0.1 0.1,0.1 H 14 c 0.1,0 0,-0.1 0,0 v 7.8 c 0,0.1 0.1,0 0,0 h -3.9 c -0.055,0 -0.1,0.045 -0.1,0.1 v 8 c 0,0.055 0.045,0.1 0.1,0.1 H 14 c 0.1,0 0,-0.1 0,0 v 9.9 c 0,3.528 0.929,6.994 2.693,10.05 1.764,3.056 4.301,5.593 7.357,7.357 3.056,1.764 6.522,2.693 10.05,2.693"
       stroke="#000000"
       stroke-width="0.2"
       id="path15-7" />
  </g>
  <path
     id="path880-2-6-6-1-5-6-7-4-0-1-94-9-8"
     style="fill:none;stroke:#000000;stroke-width:0.132292;stroke-linecap:round;stroke-linejoin:round;stroke-opacity:1;paint-order:fill markers stroke"
     d="m 562.50114,131.27401 a 1.9858922,1.9858836 0 0 1 -1.9859,1.98589 1.9858922,1.9858836 0 0 1 -1.98588,-1.98589 1.9858922,1.9858836 0 0 1 1.98588,-1.98589 1.9858922,1.9858836 0 0 1 1.9859,1.98589 z" />
  <path
     id="path880-2-6-6-1-5-6-7-4-0-1-2-0-1-3"
     style="fill:none;stroke:#000000;stroke-width:0.132292;stroke-linecap:round;stroke-linejoin:round;stroke-opacity:1;paint-order:fill markers stroke"
     d="m 562.50069,234.44208 a 1.9858922,1.9858836 0 0 1 -1.9859,1.98589 1.9858922,1.9858836 0 0 1 -1.98588,-1.98589 1.9858922,1.9858836 0 0 1 1.98588,-1.98589 1.9858922,1.9858836 0 0 1 1.9859,1.98589 z" />
  <path
     id="path880-2-6-6-1-5-6-7-4-0-1-9-9-9-2"
     style="fill:none;stroke:#000000;stroke-width:0.132292;stroke-linecap:round;stroke-linejoin:round;stroke-opacity:1;paint-order:fill markers stroke"
     d="m 457.25014,131.27401 a 1.9858922,1.9858836 0 0 1 -1.9859,1.98589 1.9858922,1.9858836 0 0 1 -1.98588,-1.98589 1.9858922,1.9858836 0 0 1 1.98588,-1.98589 1.9858922,1.9858836 0 0 1 1.9859,1.98589 z" />
  <path
     id="path880-2-6-6-1-5-6-7-4-0-1-2-3-0-4-2"
     style="fill:none;stroke:#000000;stroke-width:0.132292;stroke-linecap:round;stroke-linejoin:round;stroke-opacity:1;paint-order:fill markers stroke"
     d="m 457.24969,234.44208 a 1.9858922,1.9858836 0 0 1 -1.9859,1.98589 1.9858922,1.9858836 0 0 1 -1.98588,-1.98589 1.9858922,1.9858836 0 0 1 1.98588,-1.98589 1.9858922,1.9858836 0 0 1 1.9859,1.98589 z" />
  <path
     id="path880-2-6-6-1-2"
     style="fill:none;fill-opacity:1;stroke:#000000;stroke-width:0.132292;stroke-linecap:round;stroke-linejoin:round;stroke-opacity:1;paint-order:fill markers stroke"
     d="M 162.13522,59.485139 A 30.997577,30.99744 0 0 1 131.1375,90.482691 30.997577,30.99744 0 0 1 100.14011,59.485139 30.997577,30.99744 0 0 1 131.1375,28.487592 30.997577,30.99744 0 0 1 162.13522,59.485139 Z" />
  <path
     id="path880-2-6-6-1-2-9"
     style="fill:none;fill-opacity:1;stroke:#000000;stroke-width:0.132292;stroke-linecap:round;stroke-linejoin:round;stroke-opacity:1;paint-order:fill markers stroke"
     d="M 407.75443,59.48514 A 30.997585,30.99744 0 0 1 376.75672,90.482691 30.997585,30.99744 0 0 1 345.75933,59.48514 30.997585,30.99744 0 0 1 376.75672,28.487592 30.997585,30.99744 0 0 1 407.75443,59.48514 Z" />
</svg>
