<?xml version="1.0" encoding="UTF-8" standalone="no"?>
<svg
   xmlns:dc="http://purl.org/dc/elements/1.1/"
   xmlns:cc="http://creativecommons.org/ns#"
   xmlns:rdf="http://www.w3.org/1999/02/22-rdf-syntax-ns#"
   xmlns:svg="http://www.w3.org/2000/svg"
   xmlns="http://www.w3.org/2000/svg"
   xmlns:sodipodi="http://sodipodi.sourceforge.net/DTD/sodipodi-0.dtd"
   xmlns:inkscape="http://www.inkscape.org/namespaces/inkscape"
   height="259.60mm"
   viewBox="0.0 0.0 454.48 259.60"
   width="454.48mm"
   version="1.1"
   id="svg1009"
   sodipodi:docname="Box_125x125x100_rounded_with_20mm.svg"
   inkscape:version="1.0.2-2 (e86c870879, 2021-01-15)">
  <defs
     id="defs1013" />
  <sodipodi:namedview
     pagecolor="#ffffff"
     bordercolor="#666666"
     borderopacity="1"
     objecttolerance="10"
     gridtolerance="10"
     guidetolerance="10"
     inkscape:pageopacity="0"
     inkscape:pageshadow="2"
     inkscape:window-width="1920"
     inkscape:window-height="1001"
     id="namedview1011"
     showgrid="false"
     inkscape:zoom="0.49645514"
     inkscape:cx="583.50687"
     inkscape:cy="603.321"
     inkscape:window-x="-9"
     inkscape:window-y="-9"
     inkscape:window-maximized="1"
     inkscape:current-layer="svg1009"
     inkscape:document-rotation="0" />
  <!--
RoundedBox - Box with vertical edges rounded

Created with Boxes.py (https://festi.info/boxes.py)
Creation date: 2021-09-07 10:59:44
Command line (remove spaces between dashes): boxes RoundedBox - -FingerJoint_angle=90.0 - -FingerJoint_style=rectangular - -FingerJoint_surroundingspaces=2.0 - -FingerJoint_edge_width=1.0 - -FingerJoint_finger=2.0 - -FingerJoint_play=0.0 - -FingerJoint_space=2.0 - -FingerJoint_width=1.0 - -Flex_stretch=1.05 - -Flex_connection=1.0 - -Flex_distance=0.5 - -Flex_width=5.0 - -x=125.0 - -y=125 - -h=100.0 - -outside=0 - -outside=1 - -radius=20 - -wallpieces=1 - -edge_style=f - -top=lid - -thickness=4.0 - -format=svg - -tabs=0.0 - -debug=0 - -labels=0 - -labels=1 - -reference=100 - -burn=0.1
Url: http://www.festi.info/RoundedBox?FingerJoint_angle=90.0&FingerJoint_style=rectangular&FingerJoint_surroundingspaces=2.0&FingerJoint_edge_width=1.0&FingerJoint_finger=2.0&FingerJoint_play=0.0&FingerJoint_space=2.0&FingerJoint_width=1.0&Flex_stretch=1.05&Flex_connection=1.0&Flex_distance=0.5&Flex_width=5.0&x=125.0&y=125&h=100.0&outside=0&outside=1&radius=20&wallpieces=1&edge_style=f&top=lid&thickness=4.0&format=svg&tabs=0.0&debug=0&labels=0&labels=1&reference=100&burn=0.1&render=1
SettingsUrl: http://www.festi.info/RoundedBox?FingerJoint_angle=90.0&FingerJoint_style=rectangular&FingerJoint_surroundingspaces=2.0&FingerJoint_edge_width=1.0&FingerJoint_finger=2.0&FingerJoint_play=0.0&FingerJoint_space=2.0&FingerJoint_width=1.0&Flex_stretch=1.05&Flex_connection=1.0&Flex_distance=0.5&Flex_width=5.0&x=125.0&y=125&h=100.0&outside=0&outside=1&radius=20&wallpieces=1&edge_style=f&top=lid&thickness=4.0&format=svg&tabs=0.0&debug=0&labels=0&labels=1&reference=100&burn=0.1
-->
  <title
     id="title970">RoundedBox</title>
  <metadata
     id="metadata972">
    <rdf:RDF>
      <cc:Work>
        <dc:title>RoundedBox</dc:title>
        <dc:date>2021-09-07 10:59:44</dc:date>
        <dc:source>http://www.festi.info/RoundedBox?FingerJoint_angle=90.0&amp;FingerJoint_style=rectangular&amp;FingerJoint_surroundingspaces=2.0&amp;FingerJoint_edge_width=1.0&amp;FingerJoint_finger=2.0&amp;FingerJoint_play=0.0&amp;FingerJoint_space=2.0&amp;FingerJoint_width=1.0&amp;Flex_stretch=1.05&amp;Flex_connection=1.0&amp;Flex_distance=0.5&amp;Flex_width=5.0&amp;x=125.0&amp;y=125&amp;h=100.0&amp;outside=0&amp;outside=1&amp;radius=20&amp;wallpieces=1&amp;edge_style=f&amp;top=lid&amp;thickness=4.0&amp;format=svg&amp;tabs=0.0&amp;debug=0&amp;labels=0&amp;labels=1&amp;reference=100&amp;burn=0.1&amp;render=1</dc:source>
        <dc:description>Box with vertical edges rounded

Created with Boxes.py (https://festi.info/boxes.py)
Command line: boxes RoundedBox --FingerJoint_angle=90.0 --FingerJoint_style=rectangular --FingerJoint_surroundingspaces=2.0 --FingerJoint_edge_width=1.0 --FingerJoint_finger=2.0 --FingerJoint_play=0.0 --FingerJoint_space=2.0 --FingerJoint_width=1.0 --Flex_stretch=1.05 --Flex_connection=1.0 --Flex_distance=0.5 --Flex_width=5.0 --x=125.0 --y=125 --h=100.0 --outside=0 --outside=1 --radius=20 --wallpieces=1 --edge_style=f --top=lid --thickness=4.0 --format=svg --tabs=0.0 --debug=0 --labels=0 --labels=1 --reference=100 --burn=0.1
Url: http://www.festi.info/RoundedBox?FingerJoint_angle=90.0&amp;FingerJoint_style=rectangular&amp;FingerJoint_surroundingspaces=2.0&amp;FingerJoint_edge_width=1.0&amp;FingerJoint_finger=2.0&amp;FingerJoint_play=0.0&amp;FingerJoint_space=2.0&amp;FingerJoint_width=1.0&amp;Flex_stretch=1.05&amp;Flex_connection=1.0&amp;Flex_distance=0.5&amp;Flex_width=5.0&amp;x=125.0&amp;y=125&amp;h=100.0&amp;outside=0&amp;outside=1&amp;radius=20&amp;wallpieces=1&amp;edge_style=f&amp;top=lid&amp;thickness=4.0&amp;format=svg&amp;tabs=0.0&amp;debug=0&amp;labels=0&amp;labels=1&amp;reference=100&amp;burn=0.1&amp;render=1
SettingsUrl: http://www.festi.info/RoundedBox?FingerJoint_angle=90.0&amp;FingerJoint_style=rectangular&amp;FingerJoint_surroundingspaces=2.0&amp;FingerJoint_edge_width=1.0&amp;FingerJoint_finger=2.0&amp;FingerJoint_play=0.0&amp;FingerJoint_space=2.0&amp;FingerJoint_width=1.0&amp;Flex_stretch=1.05&amp;Flex_connection=1.0&amp;Flex_distance=0.5&amp;Flex_width=5.0&amp;x=125.0&amp;y=125&amp;h=100.0&amp;outside=0&amp;outside=1&amp;radius=20&amp;wallpieces=1&amp;edge_style=f&amp;top=lid&amp;thickness=4.0&amp;format=svg&amp;tabs=0.0&amp;debug=0&amp;labels=0&amp;labels=1&amp;reference=100&amp;burn=0.1
</dc:description>
        <dc:format>image/svg+xml</dc:format>
        <dc:type
           rdf:resource="http://purl.org/dc/dcmitype/StillImage" />
      </cc:Work>
    </rdf:RDF>
  </metadata>
  <g
     id="p-0"
     style="fill:none;stroke-linecap:round;stroke-linejoin:round">
    <path
       d="m 10.1,249.6 h 100 v -10 h -100 z"
       stroke="#000000"
       stroke-width="0.2"
       id="path974" />
    <text
       alignment-baseline="hanging"
       font-size="3.12373px"
       style="font-style:normal;font-weight:normal;font-family:sans-serif;fill:#000000;stroke-width:0.312373"
       text-anchor="middle"
       id="text976"
       x="57.054562"
       y="245.82626">100mm</text>
    <text
       alignment-baseline="hanging"
       font-size="4px"
       style="font-style:normal;font-weight:normal;font-family:sans-serif;fill:#ff0000"
       text-anchor="middle"
       transform="translate(15.1,242.6)"
       id="text978" />
  </g>
  <g
     id="p-1"
     style="fill:none;stroke-linecap:round;stroke-linejoin:round">
    <text
       alignment-baseline="hanging"
       font-size="4px"
       style="font-style:normal;font-weight:normal;font-family:sans-serif;fill:#ff0000"
       text-anchor="middle"
       transform="translate(72.6,172.9)"
       id="text981" />
    <path
       d="m 34.1,233.4 h 15.15 c 0.1,0 0,-0.1 0,0 v 3.9 c 0,0.055 0.045,0.1 0.1,0.1 h 8 c 0.055,0 0.1,-0.045 0.1,-0.1 v -3.9 c 0,-0.1 -0.1,0 0,0 H 72.6 87.75 c 0.1,0 0,-0.1 0,0 v 3.9 c 0,0.055 0.045,0.1 0.1,0.1 h 8 c 0.055,0 0.1,-0.045 0.1,-0.1 v -3.9 c 0,-0.1 -0.1,0 0,0 h 15.15 c 3.528,0 6.994,-0.929 10.05,-2.693 3.056,-1.764 5.593,-4.301 7.357,-7.357 1.764,-3.056 2.693,-6.522 2.693,-10.05 v -10.4 c 0,-0.1 -0.1,0 0,0 h 3.9 c 0.055,0 0.1,-0.045 0.1,-0.1 v -8 c 0,-0.055 -0.045,-0.1 -0.1,-0.1 h -3.9 c -0.1,0 0,0.1 0,0 v -7.8 c 0,-0.1 -0.1,0 0,0 h 3.9 c 0.055,0 0.1,-0.045 0.1,-0.1 v -8 c 0,-0.055 -0.045,-0.1 -0.1,-0.1 h -3.9 c -0.1,0 0,0.1 0,0 v -7.8 c 0,-0.1 -0.1,0 0,0 h 3.9 c 0.055,0 0.1,-0.045 0.1,-0.1 v -8 c 0,-0.055 -0.045,-0.1 -0.1,-0.1 h -3.9 c -0.1,0 0,0.1 0,0 v -7.8 c 0,-0.1 -0.1,0 0,0 h 3.9 c 0.055,0 0.1,-0.045 0.1,-0.1 v -8 c 0,-0.055 -0.045,-0.1 -0.1,-0.1 h -3.9 c -0.1,0 0,0.1 0,0 v -10.4 c 0,-3.528 -0.929,-6.994 -2.693,-10.05 -1.764,-3.056 -4.301,-5.593 -7.357,-7.357 -3.056,-1.764 -6.522,-2.693 -10.05,-2.693 h -10.4 c -0.1,0 0,0.1 0,0 v -3.9 c 0,-0.055 -0.045,-0.1 -0.1,-0.1 h -8 c -0.055,0 -0.1,0.045 -0.1,0.1 v 3.9 c 0,0.1 0.1,0 0,0 h -7.8 c -0.1,0 0,0.1 0,0 v -3.9 c 0,-0.055 -0.045,-0.1 -0.1,-0.1 h -8 c -0.055,0 -0.1,0.045 -0.1,0.1 v 3.9 c 0,0.1 0.1,0 0,0 h -7.8 c -0.1,0 0,0.1 0,0 v -3.9 c 0,-0.055 -0.045,-0.1 -0.1,-0.1 h -8 c -0.055,0 -0.1,0.045 -0.1,0.1 v 3.9 c 0,0.1 0.1,0 0,0 h -7.8 c -0.1,0 0,0.1 0,0 v -3.9 c 0,-0.055 -0.045,-0.1 -0.1,-0.1 h -8 c -0.055,0 -0.1,0.045 -0.1,0.1 v 3.9 c 0,0.1 0.1,0 0,0 H 34.1 c -3.528,0 -6.994,0.929 -10.05,2.693 -3.056,1.764 -5.593,4.301 -7.357,7.357 C 14.929,129.306 14,132.772 14,136.3 v 10.4 c 0,0.1 0.1,0 0,0 h -3.9 c -0.055,0 -0.1,0.045 -0.1,0.1 v 8 c 0,0.055 0.045,0.1 0.1,0.1 H 14 c 0.1,0 0,-0.1 0,0 v 7.8 c 0,0.1 0.1,0 0,0 h -3.9 c -0.055,0 -0.1,0.045 -0.1,0.1 v 8 c 0,0.055 0.045,0.1 0.1,0.1 H 14 c 0.1,0 0,-0.1 0,0 v 7.8 c 0,0.1 0.1,0 0,0 h -3.9 c -0.055,0 -0.1,0.045 -0.1,0.1 v 8 c 0,0.055 0.045,0.1 0.1,0.1 H 14 c 0.1,0 0,-0.1 0,0 v 7.8 c 0,0.1 0.1,0 0,0 h -3.9 c -0.055,0 -0.1,0.045 -0.1,0.1 v 8 c 0,0.055 0.045,0.1 0.1,0.1 H 14 c 0.1,0 0,-0.1 0,0 v 10.4 c 0,3.528 0.929,6.994 2.693,10.05 1.764,3.056 4.301,5.593 7.357,7.357 3.056,1.764 6.522,2.693 10.05,2.693"
       stroke="#000000"
       stroke-width="0.2"
       id="path983" />
  </g>
  <text
     alignment-baseline="hanging"
     font-size="4px"
     style="font-style:normal;font-weight:normal;font-family:sans-serif;fill:#ff0000;stroke-linecap:round;stroke-linejoin:round"
     text-anchor="middle"
     id="text986"
     x="199.8"
     y="172.89999" />
  <path
     d="m 167.32959,219.50284 c 19.84045,2.91573 42.02537,2.60781 65.88295,0 2.11142,-0.2308 4.211,-0.559 6.05,-1.621 1.839,-1.062 3.367,-2.59 4.429,-4.429 1.062,-1.839 1.50277,-3.9293 1.621,-6.05 1.61979,-29.05518 2.60932,-38.4718 0,-65.5061 -0.20406,-2.11418 -0.559,-4.211 -1.621,-6.05 -1.062,-1.839 -2.59,-3.367 -4.429,-4.429 -1.839,-1.062 -3.93803,-1.39523 -6.05,-1.621 -21.20535,-2.26691 -43.17021,-2.25528 -65.88295,0 -2.11361,0.20987 -4.211,0.559 -6.05,1.621 -1.839,1.062 -3.367,2.59 -4.429,4.429 -1.062,1.839 -1.42555,3.93501 -1.621,6.05 -2.01353,21.7886 -2.4977,37.70252 0,65.5061 0.19004,2.11548 0.559,4.211 1.621,6.05 1.062,1.839 2.59,3.367 4.429,4.429 1.839,1.062 3.94857,1.31217 6.05,1.621 z M 161.3,233.4 h 15.15 c 0.1,0 0,-0.1 0,0 v 3.9 c 0,0.055 0.045,0.1 0.1,0.1 h 8 c 0.055,0 0.1,-0.045 0.1,-0.1 v -3.9 c 0,-0.1 -0.1,0 0,0 h 15.15 15.15 c 0.1,0 0,-0.1 0,0 v 3.9 c 0,0.055 0.045,0.1 0.1,0.1 h 8 c 0.055,0 0.1,-0.045 0.1,-0.1 v -3.9 c 0,-0.1 -0.1,0 0,0 h 15.15 c 3.528,0 6.994,-0.929 10.05,-2.693 3.056,-1.764 5.593,-4.301 7.357,-7.357 1.764,-3.056 2.693,-6.522 2.693,-10.05 v -10.4 c 0,-0.1 -0.1,0 0,0 h 3.9 c 0.055,0 0.1,-0.045 0.1,-0.1 v -8 c 0,-0.055 -0.045,-0.1 -0.1,-0.1 h -3.9 c -0.1,0 0,0.1 0,0 v -7.8 c 0,-0.1 -0.1,0 0,0 h 3.9 c 0.055,0 0.1,-0.045 0.1,-0.1 v -8 c 0,-0.055 -0.045,-0.1 -0.1,-0.1 h -3.9 c -0.1,0 0,0.1 0,0 v -7.8 c 0,-0.1 -0.1,0 0,0 h 3.9 c 0.055,0 0.1,-0.045 0.1,-0.1 v -8 c 0,-0.055 -0.045,-0.1 -0.1,-0.1 h -3.9 c -0.1,0 0,0.1 0,0 v -7.8 c 0,-0.1 -0.1,0 0,0 h 3.9 c 0.055,0 0.1,-0.045 0.1,-0.1 v -8 c 0,-0.055 -0.045,-0.1 -0.1,-0.1 h -3.9 c -0.1,0 0,0.1 0,0 v -10.4 c 0,-3.528 -0.929,-6.994 -2.693,-10.05 -1.764,-3.056 -4.301,-5.593 -7.357,-7.357 -3.056,-1.764 -6.522,-2.693 -10.05,-2.693 h -10.4 c -0.1,0 0,0.1 0,0 v -3.9 c 0,-0.055 -0.045,-0.1 -0.1,-0.1 h -8 c -0.055,0 -0.1,0.045 -0.1,0.1 v 3.9 c 0,0.1 0.1,0 0,0 h -7.8 c -0.1,0 0,0.1 0,0 v -3.9 c 0,-0.055 -0.045,-0.1 -0.1,-0.1 h -8 c -0.055,0 -0.1,0.045 -0.1,0.1 v 3.9 c 0,0.1 0.1,0 0,0 h -7.8 c -0.1,0 0,0.1 0,0 v -3.9 c 0,-0.055 -0.045,-0.1 -0.1,-0.1 h -8 c -0.055,0 -0.1,0.045 -0.1,0.1 v 3.9 c 0,0.1 0.1,0 0,0 h -7.8 c -0.1,0 0,0.1 0,0 v -3.9 c 0,-0.055 -0.045,-0.1 -0.1,-0.1 h -8 c -0.055,0 -0.1,0.045 -0.1,0.1 v 3.9 c 0,0.1 0.1,0 0,0 h -10.4 c -3.528,0 -6.994,0.929 -10.05,2.693 -3.056,1.764 -5.593,4.301 -7.357,7.357 -1.764,3.056 -2.693,6.522 -2.693,10.05 v 10.4 c 0,0.1 0.1,0 0,0 h -3.9 c -0.055,0 -0.1,0.045 -0.1,0.1 v 8 c 0,0.055 0.045,0.1 0.1,0.1 h 3.9 c 0.1,0 0,-0.1 0,0 v 7.8 c 0,0.1 0.1,0 0,0 h -3.9 c -0.055,0 -0.1,0.045 -0.1,0.1 v 8 c 0,0.055 0.045,0.1 0.1,0.1 h 3.9 c 0.1,0 0,-0.1 0,0 v 7.8 c 0,0.1 0.1,0 0,0 h -3.9 c -0.055,0 -0.1,0.045 -0.1,0.1 v 8 c 0,0.055 0.045,0.1 0.1,0.1 h 3.9 c 0.1,0 0,-0.1 0,0 v 7.8 c 0,0.1 0.1,0 0,0 h -3.9 c -0.055,0 -0.1,0.045 -0.1,0.1 v 8 c 0,0.055 0.045,0.1 0.1,0.1 h 3.9 c 0.1,0 0,-0.1 0,0 v 10.4 c 0,3.528 0.929,6.994 2.693,10.05 1.764,3.056 4.301,5.593 7.357,7.357 3.056,1.764 6.522,2.693 10.05,2.693"
     stroke="#000000"
     stroke-width="0.2"
     id="path988"
     style="fill:none;stroke-linecap:round;stroke-linejoin:round"
     sodipodi:nodetypes="ssssssssssssssssscsssssssscsssssssssssssssssssssssssssssssssssssssssssssssssssssssssssssssssssssssssssssssssssssssssssssssssssssssssssssssssssssssc" />
  <g
     id="p-3"
     style="fill:none;stroke-linecap:round;stroke-linejoin:round;">
    <text
       alignment-baseline="hanging"
       font-size="4px"
       style="font-family: sans-serif ; font-weight: normal; font-style: normal; fill: rgb(255,0,0)"
       text-anchor="middle"
       transform="matrix( 1.000 0.000 0.000 1.000 327.000 172.900 )"
       id="text991" />
    <path
       d="M 288.500 237.400 H 327.000 H 365.500 C 369.730 237.400 373.886 236.286 377.550 234.171 C 381.214 232.056 384.256 229.014 386.371 225.350 C 388.486 221.686 389.600 217.530 389.600 213.300 V 136.300 C 389.600 132.070 388.486 127.914 386.371 124.250 C 384.256 120.586 381.214 117.544 377.550 115.429 C 373.886 113.314 369.730 112.200 365.500 112.200 H 288.500 C 284.270 112.200 280.114 113.314 276.450 115.429 C 272.786 117.544 269.744 120.586 267.629 124.250 C 265.514 127.914 264.400 132.070 264.400 136.300 V 213.300 C 264.400 217.530 265.514 221.686 267.629 225.350 C 269.744 229.014 272.786 232.056 276.450 234.171 C 280.114 236.286 284.270 237.400 288.500 237.400"
       stroke="rgb(0,0,0)"
       stroke-width="0.20"
       id="path993" />
  </g>
  <g
     id="p-4"
     style="fill:none;stroke-linecap:round;stroke-linejoin:round">
    <text
       alignment-baseline="hanging"
       font-size="4px"
       style="font-style:normal;font-weight:normal;font-family:sans-serif;fill:#ff0000"
       text-anchor="middle"
       transform="translate(228.339,58.2)"
       id="text996" />
    <path
       d="m 10.1,110.2 h 15.25 c 0.055,0 0.1,-0.045 0.1,-0.1 v -3.9 c 0,-0.1 -0.1,0 0,0 h 7.8 c 0.1,0 0,-0.1 0,0 v 3.9 c 0,0.055 0.045,0.1 0.1,0.1 h 15.25 30.07 10.5 c 0.055,0 0.1,-0.045 0.1,-0.1 v -3.9 c 0,-0.1 -0.1,0 0,0 h 7.8 c 0.1,0 0,-0.1 0,0 v 3.9 c 0,0.055 0.044,0.1 0.1,0.1 h 8 c 0.055,0 0.1,-0.045 0.1,-0.1 v -3.9 c 0,-0.1 -0.1,0 0,0 h 7.8 c 0.1,0 0,-0.1 0,0 v 3.9 c 0,0.055 0.044,0.1 0.1,0.1 h 8 c 0.055,0 0.1,-0.045 0.1,-0.1 v -3.9 c 0,-0.1 -0.1,0 0,0 h 7.8 c 0.1,0 0,-0.1 0,0 v 3.9 c 0,0.055 0.044,0.1 0.1,0.1 h 8 c 0.055,0 0.1,-0.045 0.1,-0.1 v -3.9 c 0,-0.1 -0.1,0 0,0 h 7.8 c 0.1,0 0,-0.1 0,0 v 3.9 c 0,0.055 0.044,0.1 0.1,0.1 h 10.5 30.069 10.5 c 0.055,0 0.1,-0.045 0.1,-0.1 v -3.9 c 0,-0.1 -0.1,0 0,0 h 7.8 c 0.1,0 0,-0.1 0,0 v 3.9 c 0,0.055 0.045,0.1 0.1,0.1 h 8 c 0.055,0 0.1,-0.045 0.1,-0.1 v -3.9 c 0,-0.1 -0.1,0 0,0 h 7.8 c 0.1,0 0,-0.1 0,0 v 3.9 c 0,0.055 0.045,0.1 0.1,0.1 h 8 c 0.055,0 0.1,-0.045 0.1,-0.1 v -3.9 c 0,-0.1 -0.1,0 0,0 h 7.8 c 0.1,0 0,-0.1 0,0 v 3.9 c 0,0.055 0.045,0.1 0.1,0.1 h 8 c 0.055,0 0.1,-0.045 0.1,-0.1 v -3.9 c 0,-0.1 -0.1,0 0,0 h 7.8 c 0.1,0 0,-0.1 0,0 v 3.9 c 0,0.055 0.045,0.1 0.1,0.1 h 10.5 30.07 10.5 c 0.055,0 0.1,-0.045 0.1,-0.1 v -3.9 c 0,-0.1 -0.1,0 0,0 h 7.8 c 0.1,0 0,-0.1 0,0 v 3.9 c 0,0.055 0.044,0.1 0.1,0.1 h 8 c 0.055,0 0.1,-0.045 0.1,-0.1 v -3.9 c 0,-0.1 -0.1,0 0,0 h 7.8 c 0.1,0 0,-0.1 0,0 v 3.9 c 0,0.055 0.044,0.1 0.1,0.1 h 8 c 0.055,0 0.1,-0.045 0.1,-0.1 v -3.9 c 0,-0.1 -0.1,0 0,0 h 7.8 c 0.1,0 0,-0.1 0,0 v 3.9 c 0,0.055 0.044,0.1 0.1,0.1 h 8 c 0.055,0 0.1,-0.045 0.1,-0.1 v -3.9 c 0,-0.1 -0.1,0 0,0 h 7.8 c 0.1,0 0,-0.1 0,0 v 3.9 c 0,0.055 0.044,0.1 0.1,0.1 h 10.5 30.069 15.25 c 0.055,0 0.1,-0.045 0.1,-0.1 v -3.9 c 0,-0.1 -0.1,0 0,0 h 7.8 c 0.1,0 0,-0.1 0,0 v 3.9 c 0,0.055 0.045,0.1 0.1,0.1 h 15.25 c 0.055,0 0.1,-0.045 0.1,-0.1 v -4 -17.377 c 0,-0.144 0.044,-0.284 0.127,-0.402 0.082,-0.117 0.199,-0.207 0.334,-0.256 0.135,-0.049 0.282,-0.056 0.42,-0.018 0.139,0.037 0.263,0.116 0.355,0.226 l 3.175,3.783 c 0.118,0.141 0.278,0.243 0.456,0.291 0.179,0.047 0.367,0.039 0.541,-0.024 0.173,-0.063 0.323,-0.178 0.429,-0.33 0.106,-0.151 0.163,-0.331 0.163,-0.516 V 76.723 c 0,-0.185 -0.057,-0.365 -0.163,-0.516 -0.106,-0.152 -0.256,-0.267 -0.429,-0.33 -0.174,-0.063 -0.362,-0.071 -0.541,-0.024 -0.178,0.048 -0.338,0.15 -0.456,0.291 l -3.175,3.783 c -0.092,0.11 -0.216,0.189 -0.355,0.226 -0.138,0.038 -0.285,0.031 -0.42,-0.018 -0.135,-0.049 -0.252,-0.139 -0.334,-0.256 -0.083,-0.118 -0.127,-0.258 -0.127,-0.402 V 64.723 c 0,-0.144 0.044,-0.284 0.127,-0.402 0.082,-0.117 0.199,-0.207 0.334,-0.256 0.135,-0.049 0.282,-0.056 0.42,-0.018 0.139,0.037 0.263,0.116 0.355,0.226 l 3.175,3.783 c 0.118,0.141 0.278,0.243 0.456,0.291 0.179,0.047 0.367,0.039 0.541,-0.024 0.173,-0.063 0.323,-0.178 0.429,-0.33 0.106,-0.151 0.163,-0.331 0.163,-0.516 V 52.723 c 0,-0.185 -0.057,-0.365 -0.163,-0.516 -0.106,-0.152 -0.256,-0.267 -0.429,-0.33 -0.174,-0.063 -0.362,-0.071 -0.541,-0.024 -0.178,0.048 -0.338,0.15 -0.456,0.291 l -3.175,3.783 c -0.092,0.11 -0.216,0.189 -0.355,0.226 -0.138,0.038 -0.285,0.031 -0.42,-0.018 -0.135,-0.049 -0.252,-0.139 -0.334,-0.256 -0.083,-0.118 -0.127,-0.258 -0.127,-0.402 V 40.723 c 0,-0.144 0.044,-0.284 0.127,-0.402 0.082,-0.117 0.199,-0.207 0.334,-0.256 0.135,-0.049 0.282,-0.056 0.42,-0.018 0.139,0.037 0.263,0.116 0.355,0.226 l 3.175,3.783 c 0.118,0.141 0.278,0.243 0.456,0.291 0.179,0.047 0.367,0.039 0.541,-0.024 0.173,-0.063 0.323,-0.178 0.429,-0.33 0.106,-0.151 0.163,-0.331 0.163,-0.516 V 28.723 c 0,-0.185 -0.057,-0.365 -0.163,-0.516 -0.106,-0.152 -0.256,-0.267 -0.429,-0.33 -0.174,-0.063 -0.362,-0.071 -0.541,-0.024 -0.178,0.048 -0.338,0.15 -0.456,0.291 l -3.175,3.783 c -0.092,0.11 -0.216,0.189 -0.355,0.226 -0.138,0.038 -0.285,0.031 -0.42,-0.018 -0.135,-0.049 -0.252,-0.139 -0.334,-0.256 -0.083,-0.118 -0.127,-0.258 -0.127,-0.402 V 14.1 v -4 c 0,-0.055 -0.045,-0.1 -0.1,-0.1 h -15.25 c -0.055,0 -0.1,0.045 -0.1,0.1 V 14 c 0,0.1 0.1,0 0,0 h -7.8 c -0.1,0 0,0.1 0,0 v -3.9 c 0,-0.055 -0.045,-0.1 -0.1,-0.1 h -15.25 -30.069 -10.5 c -0.056,0 -0.1,0.045 -0.1,0.1 V 14 c 0,0.1 0.1,0 0,0 h -7.8 c -0.1,0 0,0.1 0,0 v -3.9 c 0,-0.055 -0.045,-0.1 -0.1,-0.1 h -8 c -0.056,0 -0.1,0.045 -0.1,0.1 V 14 c 0,0.1 0.1,0 0,0 h -7.8 c -0.1,0 0,0.1 0,0 v -3.9 c 0,-0.055 -0.045,-0.1 -0.1,-0.1 h -8 c -0.056,0 -0.1,0.045 -0.1,0.1 V 14 c 0,0.1 0.1,0 0,0 h -7.8 c -0.1,0 0,0.1 0,0 v -3.9 c 0,-0.055 -0.045,-0.1 -0.1,-0.1 h -8 c -0.056,0 -0.1,0.045 -0.1,0.1 V 14 c 0,0.1 0.1,0 0,0 h -7.8 c -0.1,0 0,0.1 0,0 v -3.9 c 0,-0.055 -0.045,-0.1 -0.1,-0.1 h -10.5 -30.07 -10.5 c -0.055,0 -0.1,0.045 -0.1,0.1 V 14 c 0,0.1 0.1,0 0,0 h -7.8 c -0.1,0 0,0.1 0,0 v -3.9 c 0,-0.055 -0.045,-0.1 -0.1,-0.1 h -8 c -0.055,0 -0.1,0.045 -0.1,0.1 V 14 c 0,0.1 0.1,0 0,0 h -7.8 c -0.1,0 0,0.1 0,0 v -3.9 c 0,-0.055 -0.045,-0.1 -0.1,-0.1 h -8 c -0.055,0 -0.1,0.045 -0.1,0.1 V 14 c 0,0.1 0.1,0 0,0 h -7.8 c -0.1,0 0,0.1 0,0 v -3.9 c 0,-0.055 -0.045,-0.1 -0.1,-0.1 h -8 c -0.055,0 -0.1,0.045 -0.1,0.1 V 14 c 0,0.1 0.1,0 0,0 h -7.8 c -0.1,0 0,0.1 0,0 v -3.9 c 0,-0.055 -0.045,-0.1 -0.1,-0.1 h -10.5 -30.069 -10.5 c -0.056,0 -0.1,0.045 -0.1,0.1 V 14 c 0,0.1 0.1,0 0,0 h -7.8 c -0.1,0 0,0.1 0,0 v -3.9 c 0,-0.055 -0.045,-0.1 -0.1,-0.1 h -8 c -0.056,0 -0.1,0.045 -0.1,0.1 V 14 c 0,0.1 0.1,0 0,0 h -7.8 c -0.1,0 0,0.1 0,0 v -3.9 c 0,-0.055 -0.045,-0.1 -0.1,-0.1 h -8 c -0.056,0 -0.1,0.045 -0.1,0.1 V 14 c 0,0.1 0.1,0 0,0 h -7.8 c -0.1,0 0,0.1 0,0 v -3.9 c 0,-0.055 -0.045,-0.1 -0.1,-0.1 h -8 c -0.056,0 -0.1,0.045 -0.1,0.1 V 14 c 0,0.1 0.1,0 0,0 h -7.8 c -0.1,0 0,0.1 0,0 v -3.9 c 0,-0.055 -0.045,-0.1 -0.1,-0.1 H 78.67 48.6 33.35 c -0.055,0 -0.1,0.045 -0.1,0.1 V 14 c 0,0.1 0.1,0 0,0 h -7.8 c -0.1,0 0,0.1 0,0 v -3.9 c 0,-0.055 -0.045,-0.1 -0.1,-0.1 H 10.1 C 10.045,10 10,10.045 10,10.1 v 4 17.377 c 0,0.185 0.057,0.365 0.163,0.516 0.106,0.152 0.256,0.267 0.429,0.33 0.174,0.063 0.363,0.071 0.541,0.024 0.178,-0.048 0.338,-0.15 0.456,-0.291 l 3.175,-3.783 c 0.092,-0.11 0.216,-0.189 0.355,-0.226 0.139,-0.038 0.285,-0.031 0.42,0.018 0.135,0.049 0.252,0.139 0.334,0.256 0.083,0.118 0.127,0.258 0.127,0.402 v 14.754 c 0,0.144 -0.044,0.284 -0.127,0.402 -0.082,0.117 -0.199,0.207 -0.334,0.256 -0.135,0.049 -0.281,0.056 -0.42,0.018 -0.139,-0.037 -0.263,-0.116 -0.355,-0.226 l -3.175,-3.783 c -0.118,-0.141 -0.278,-0.243 -0.456,-0.291 -0.178,-0.047 -0.367,-0.039 -0.541,0.024 -0.173,0.063 -0.323,0.178 -0.429,0.33 C 10.057,40.358 10,40.538 10,40.723 v 14.754 c 0,0.185 0.057,0.365 0.163,0.516 0.106,0.152 0.256,0.267 0.429,0.33 0.174,0.063 0.363,0.071 0.541,0.024 0.178,-0.048 0.338,-0.15 0.456,-0.291 l 3.175,-3.783 c 0.092,-0.11 0.216,-0.189 0.355,-0.226 0.139,-0.038 0.285,-0.031 0.42,0.018 0.135,0.049 0.252,0.139 0.334,0.256 0.083,0.118 0.127,0.258 0.127,0.402 v 14.754 c 0,0.144 -0.044,0.284 -0.127,0.402 -0.082,0.117 -0.199,0.207 -0.334,0.256 -0.135,0.049 -0.281,0.056 -0.42,0.018 -0.139,-0.037 -0.263,-0.116 -0.355,-0.226 l -3.175,-3.783 c -0.118,-0.141 -0.278,-0.243 -0.456,-0.291 -0.178,-0.047 -0.367,-0.039 -0.541,0.024 -0.173,0.063 -0.323,0.178 -0.429,0.33 C 10.057,64.358 10,64.538 10,64.723 v 14.754 c 0,0.185 0.057,0.365 0.163,0.516 0.106,0.152 0.256,0.267 0.429,0.33 0.174,0.063 0.363,0.071 0.541,0.024 0.178,-0.048 0.338,-0.15 0.456,-0.291 l 3.175,-3.783 c 0.092,-0.11 0.216,-0.189 0.355,-0.226 0.139,-0.038 0.285,-0.031 0.42,0.018 0.135,0.049 0.252,0.139 0.334,0.256 0.083,0.118 0.127,0.258 0.127,0.402 v 14.754 c 0,0.144 -0.044,0.284 -0.127,0.402 -0.082,0.117 -0.199,0.207 -0.334,0.256 -0.135,0.049 -0.281,0.056 -0.42,0.018 -0.139,-0.037 -0.263,-0.116 -0.355,-0.226 l -3.175,-3.783 c -0.118,-0.141 -0.278,-0.243 -0.456,-0.291 -0.178,-0.047 -0.367,-0.039 -0.541,0.024 -0.173,0.063 -0.323,0.178 -0.429,0.33 C 10.057,88.358 10,88.538 10,88.723 v 17.377 4 c 0,0.055 0.045,0.1 0.1,0.1"
       stroke="#000000"
       stroke-width="0.2"
       id="path998" />
    <path
       d="M 50.635,110.2 V 86.15 m 0,-4 v -44.1 m 0,-4 V 10 m 2,4 v 44.1 m 0,4 v 44.1 m 2,4 V 86.15 m 0,-4 v -44.1 m 0,-4 V 10 m 2,4 v 44.1 m 0,4 v 44.1 m 2,4 V 86.15 m 0,-4 v -44.1 m 0,-4 V 10 m 2,4 v 44.1 m 0,4 v 44.1 m 2,4 V 86.15 m 0,-4 v -44.1 m 0,-4 V 10 m 2,4 v 44.1 m 0,4 v 44.1 m 2,4 V 86.15 m 0,-4 v -44.1 m 0,-4 V 10 m 2,4 v 44.1 m 0,4 v 44.1 m 2,4 V 86.15 m 0,-4 v -44.1 m 0,-4 V 10 m 2,4 v 44.1 m 0,4 v 44.1 m 2,4 V 86.15 m 0,-4 v -44.1 m 0,-4 V 10 m 2,4 v 44.1 m 0,4 v 44.1"
       stroke="#000000"
       stroke-width="0.2"
       id="path1000" />
    <path
       d="M 157.704,110.2 V 86.15 m 0,-4 v -44.1 m 0,-4 V 10 m 2,4 v 44.1 m 0,4 v 44.1 m 2,4 V 86.15 m 0,-4 v -44.1 m 0,-4 V 10 m 2,4 v 44.1 m 0,4 v 44.1 m 2,4 V 86.15 m 0,-4 v -44.1 m 0,-4 V 10 m 2,4 v 44.1 m 0,4 v 44.1 m 2,4 V 86.15 m 0,-4 v -44.1 m 0,-4 V 10 m 2,4 v 44.1 m 0,4 v 44.1 m 2,4 V 86.15 m 0,-4 v -44.1 m 0,-4 V 10 m 2,4 v 44.1 m 0,4 v 44.1 m 2,4 V 86.15 m 0,-4 v -44.1 m 0,-4 V 10 m 2,4 v 44.1 m 0,4 v 44.1 m 2,4 V 86.15 m 0,-4 v -44.1 m 0,-4 V 10 m 2,4 v 44.1 m 0,4 v 44.1"
       stroke="#000000"
       stroke-width="0.2"
       id="path1002" />
    <path
       d="M 264.774,110.2 V 86.15 m 0,-4 v -44.1 m 0,-4 V 10 m 2,4 v 44.1 m 0,4 v 44.1 m 2,4 V 86.15 m 0,-4 v -44.1 m 0,-4 V 10 m 2,4 v 44.1 m 0,4 v 44.1 m 2,4 V 86.15 m 0,-4 v -44.1 m 0,-4 V 10 m 2,4 v 44.1 m 0,4 v 44.1 m 2,4 V 86.15 m 0,-4 v -44.1 m 0,-4 V 10 m 2,4 v 44.1 m 0,4 v 44.1 m 2,4 V 86.15 m 0,-4 v -44.1 m 0,-4 V 10 m 2,4 v 44.1 m 0,4 v 44.1 m 2,4 V 86.15 m 0,-4 v -44.1 m 0,-4 V 10 m 2,4 v 44.1 m 0,4 v 44.1 m 2,4 V 86.15 m 0,-4 v -44.1 m 0,-4 V 10 m 2,4 v 44.1 m 0,4 v 44.1"
       stroke="#000000"
       stroke-width="0.2"
       id="path1004" />
    <path
       d="M 371.843,110.2 V 86.15 m 0,-4 v -44.1 m 0,-4 V 10 m 2,4 v 44.1 m 0,4 v 44.1 m 2,4 V 86.15 m 0,-4 v -44.1 m 0,-4 V 10 m 2,4 v 44.1 m 0,4 v 44.1 m 2,4 V 86.15 m 0,-4 v -44.1 m 0,-4 V 10 m 2,4 v 44.1 m 0,4 v 44.1 m 2,4 V 86.15 m 0,-4 v -44.1 m 0,-4 V 10 m 2,4 v 44.1 m 0,4 v 44.1 m 2,4 V 86.15 m 0,-4 v -44.1 m 0,-4 V 10 m 2,4 v 44.1 m 0,4 v 44.1 m 2,4 V 86.15 m 0,-4 v -44.1 m 0,-4 V 10 m 2,4 v 44.1 m 0,4 v 44.1 m 2,4 V 86.15 m 0,-4 v -44.1 m 0,-4 V 10 m 2,4 v 44.1 m 0,4 v 44.1"
       stroke="#000000"
       stroke-width="0.2"
       id="path1006" />
  </g>
</svg>
